<svg width="991" height="506" viewBox="0 0 991 506" fill="none" xmlns="http://www.w3.org/2000/svg">
<rect width="991" height="506" rx="104" fill="white"/>
<rect x="66" y="61" width="406" height="176" rx="30" fill="#E7E7E7"/>
<rect x="66" y="271" width="406" height="176" rx="30" fill="#E7E7E7"/>
<rect x="521" y="271" width="406" height="176" rx="30" fill="#E7E7E7"/>
<rect x="521" y="61" width="406" height="176" rx="30" fill="#E7E7E7"/>
<path d="M102.582 115.818H108.386L116.159 134.79H116.466L124.239 115.818H130.043V142H125.491V124.013H125.249L118.013 141.923H114.612L107.376 123.974H107.134V142H102.582V115.818ZM140.653 142.396C139.409 142.396 138.288 142.175 137.291 141.732C136.303 141.28 135.518 140.615 134.939 139.737C134.368 138.859 134.082 137.777 134.082 136.49C134.082 135.382 134.287 134.466 134.696 133.741C135.105 133.017 135.663 132.438 136.371 132.003C137.078 131.568 137.875 131.24 138.761 131.018C139.656 130.788 140.581 130.622 141.536 130.52C142.686 130.401 143.619 130.294 144.335 130.2C145.051 130.098 145.571 129.945 145.895 129.74C146.227 129.527 146.393 129.199 146.393 128.756V128.679C146.393 127.716 146.108 126.97 145.537 126.442C144.966 125.913 144.143 125.649 143.07 125.649C141.936 125.649 141.037 125.896 140.372 126.391C139.716 126.885 139.273 127.469 139.043 128.142L134.722 127.528C135.063 126.335 135.625 125.338 136.409 124.537C137.193 123.727 138.152 123.122 139.286 122.722C140.419 122.312 141.672 122.108 143.044 122.108C143.99 122.108 144.932 122.219 145.869 122.44C146.807 122.662 147.663 123.028 148.439 123.54C149.214 124.043 149.837 124.729 150.305 125.598C150.783 126.467 151.021 127.554 151.021 128.858V142H146.572V139.303H146.419C146.138 139.848 145.741 140.359 145.23 140.837C144.727 141.305 144.092 141.685 143.325 141.974C142.567 142.256 141.676 142.396 140.653 142.396ZM141.855 138.996C142.784 138.996 143.589 138.812 144.271 138.446C144.953 138.071 145.477 137.577 145.844 136.963C146.219 136.349 146.406 135.68 146.406 134.956V132.642C146.261 132.761 146.014 132.872 145.665 132.974C145.324 133.077 144.94 133.166 144.514 133.243C144.088 133.32 143.666 133.388 143.249 133.447C142.831 133.507 142.469 133.558 142.162 133.601C141.472 133.695 140.854 133.848 140.308 134.061C139.763 134.274 139.332 134.572 139.017 134.956C138.702 135.331 138.544 135.817 138.544 136.413C138.544 137.266 138.855 137.909 139.477 138.344C140.099 138.778 140.892 138.996 141.855 138.996ZM164.24 142.384C162.28 142.384 160.597 141.953 159.19 141.092C157.793 140.232 156.714 139.043 155.956 137.526C155.206 136 154.831 134.244 154.831 132.259C154.831 130.264 155.214 128.504 155.982 126.979C156.749 125.445 157.831 124.251 159.229 123.399C160.635 122.538 162.297 122.108 164.214 122.108C165.808 122.108 167.219 122.402 168.446 122.99C169.682 123.57 170.666 124.392 171.399 125.457C172.132 126.514 172.55 127.75 172.652 129.165H168.229C168.05 128.219 167.624 127.43 166.95 126.8C166.286 126.161 165.395 125.841 164.278 125.841C163.332 125.841 162.501 126.097 161.786 126.608C161.07 127.111 160.511 127.835 160.111 128.781C159.719 129.727 159.523 130.861 159.523 132.182C159.523 133.52 159.719 134.67 160.111 135.634C160.503 136.588 161.053 137.325 161.76 137.845C162.476 138.357 163.315 138.612 164.278 138.612C164.96 138.612 165.57 138.484 166.107 138.229C166.652 137.964 167.108 137.585 167.474 137.091C167.841 136.597 168.092 135.996 168.229 135.288H172.652C172.541 136.678 172.132 137.909 171.425 138.983C170.717 140.048 169.754 140.884 168.536 141.489C167.317 142.085 165.885 142.384 164.24 142.384ZM176.657 142V115.818H186.679C188.571 115.818 190.144 116.116 191.397 116.713C192.658 117.301 193.6 118.107 194.222 119.129C194.853 120.152 195.168 121.311 195.168 122.607C195.168 123.672 194.963 124.584 194.554 125.342C194.145 126.092 193.596 126.702 192.905 127.17C192.215 127.639 191.444 127.976 190.591 128.18V128.436C191.52 128.487 192.411 128.773 193.263 129.293C194.124 129.804 194.827 130.528 195.373 131.466C195.918 132.403 196.191 133.537 196.191 134.866C196.191 136.222 195.863 137.44 195.206 138.523C194.55 139.597 193.561 140.445 192.24 141.067C190.919 141.689 189.257 142 187.255 142H176.657ZM181.4 138.037H186.5C188.222 138.037 189.462 137.709 190.221 137.053C190.988 136.388 191.371 135.536 191.371 134.496C191.371 133.72 191.179 133.021 190.796 132.399C190.412 131.768 189.867 131.274 189.159 130.916C188.452 130.55 187.608 130.366 186.628 130.366H181.4V138.037ZM181.4 126.953H186.091C186.909 126.953 187.647 126.804 188.303 126.506C188.959 126.199 189.475 125.768 189.85 125.214C190.233 124.652 190.425 123.987 190.425 123.22C190.425 122.206 190.067 121.371 189.351 120.714C188.644 120.058 187.591 119.73 186.194 119.73H181.4V126.953ZM208.678 142.384C206.76 142.384 205.098 141.962 203.692 141.118C202.286 140.274 201.195 139.094 200.419 137.577C199.652 136.06 199.268 134.287 199.268 132.259C199.268 130.23 199.652 128.453 200.419 126.928C201.195 125.402 202.286 124.217 203.692 123.374C205.098 122.53 206.76 122.108 208.678 122.108C210.595 122.108 212.257 122.53 213.663 123.374C215.07 124.217 216.156 125.402 216.923 126.928C217.699 128.453 218.087 130.23 218.087 132.259C218.087 134.287 217.699 136.06 216.923 137.577C216.156 139.094 215.07 140.274 213.663 141.118C212.257 141.962 210.595 142.384 208.678 142.384ZM208.703 138.676C209.743 138.676 210.612 138.391 211.311 137.82C212.01 137.24 212.53 136.464 212.871 135.493C213.22 134.521 213.395 133.439 213.395 132.246C213.395 131.044 213.22 129.957 212.871 128.986C212.53 128.006 212.01 127.226 211.311 126.646C210.612 126.067 209.743 125.777 208.703 125.777C207.638 125.777 206.751 126.067 206.044 126.646C205.345 127.226 204.821 128.006 204.472 128.986C204.131 129.957 203.96 131.044 203.96 132.246C203.96 133.439 204.131 134.521 204.472 135.493C204.821 136.464 205.345 137.24 206.044 137.82C206.751 138.391 207.638 138.676 208.703 138.676ZM230.58 142.384C228.662 142.384 227 141.962 225.594 141.118C224.188 140.274 223.097 139.094 222.321 137.577C221.554 136.06 221.171 134.287 221.171 132.259C221.171 130.23 221.554 128.453 222.321 126.928C223.097 125.402 224.188 124.217 225.594 123.374C227 122.53 228.662 122.108 230.58 122.108C232.498 122.108 234.159 122.53 235.566 123.374C236.972 124.217 238.059 125.402 238.826 126.928C239.601 128.453 239.989 130.23 239.989 132.259C239.989 134.287 239.601 136.06 238.826 137.577C238.059 139.094 236.972 140.274 235.566 141.118C234.159 141.962 232.498 142.384 230.58 142.384ZM230.605 138.676C231.645 138.676 232.515 138.391 233.213 137.82C233.912 137.24 234.432 136.464 234.773 135.493C235.123 134.521 235.297 133.439 235.297 132.246C235.297 131.044 235.123 129.957 234.773 128.986C234.432 128.006 233.912 127.226 233.213 126.646C232.515 126.067 231.645 125.777 230.605 125.777C229.54 125.777 228.654 126.067 227.946 126.646C227.248 127.226 226.723 128.006 226.374 128.986C226.033 129.957 225.863 131.044 225.863 132.246C225.863 133.439 226.033 134.521 226.374 135.493C226.723 136.464 227.248 137.24 227.946 137.82C228.654 138.391 229.54 138.676 230.605 138.676ZM248.136 135.838L248.123 130.251H248.864L255.921 122.364H261.329L252.648 132.028H251.69L248.136 135.838ZM243.917 142V115.818H248.545V142H243.917ZM256.241 142L249.849 133.064L252.968 129.804L261.776 142H256.241ZM273.547 142V115.818H283.365C285.377 115.818 287.064 116.193 288.428 116.943C289.8 117.693 290.836 118.724 291.534 120.037C292.242 121.341 292.596 122.824 292.596 124.486C292.596 126.165 292.242 127.656 291.534 128.96C290.827 130.264 289.783 131.291 288.402 132.041C287.022 132.783 285.321 133.153 283.301 133.153H276.794V129.254H282.662C283.838 129.254 284.801 129.05 285.551 128.641C286.301 128.232 286.855 127.669 287.213 126.953C287.58 126.237 287.763 125.415 287.763 124.486C287.763 123.557 287.58 122.739 287.213 122.031C286.855 121.324 286.297 120.774 285.539 120.382C284.789 119.982 283.821 119.781 282.637 119.781H278.29V142H273.547ZM296.511 142V122.364H300.998V125.636H301.202C301.56 124.503 302.174 123.629 303.043 123.016C303.921 122.393 304.923 122.082 306.048 122.082C306.303 122.082 306.589 122.095 306.904 122.121C307.228 122.138 307.496 122.168 307.71 122.21V126.467C307.513 126.399 307.202 126.339 306.776 126.288C306.359 126.229 305.954 126.199 305.562 126.199C304.718 126.199 303.96 126.382 303.286 126.749C302.621 127.107 302.097 127.605 301.714 128.244C301.33 128.884 301.138 129.621 301.138 130.456V142H296.511ZM318.541 142.384C316.623 142.384 314.961 141.962 313.555 141.118C312.149 140.274 311.058 139.094 310.282 137.577C309.515 136.06 309.132 134.287 309.132 132.259C309.132 130.23 309.515 128.453 310.282 126.928C311.058 125.402 312.149 124.217 313.555 123.374C314.961 122.53 316.623 122.108 318.541 122.108C320.458 122.108 322.12 122.53 323.527 123.374C324.933 124.217 326.02 125.402 326.787 126.928C327.562 128.453 327.95 130.23 327.95 132.259C327.95 134.287 327.562 136.06 326.787 137.577C326.02 139.094 324.933 140.274 323.527 141.118C322.12 141.962 320.458 142.384 318.541 142.384ZM318.566 138.676C319.606 138.676 320.475 138.391 321.174 137.82C321.873 137.24 322.393 136.464 322.734 135.493C323.083 134.521 323.258 133.439 323.258 132.246C323.258 131.044 323.083 129.957 322.734 128.986C322.393 128.006 321.873 127.226 321.174 126.646C320.475 126.067 319.606 125.777 318.566 125.777C317.501 125.777 316.615 126.067 315.907 126.646C315.208 127.226 314.684 128.006 314.335 128.986C313.994 129.957 313.824 131.044 313.824 132.246C313.824 133.439 313.994 134.521 314.335 135.493C314.684 136.464 315.208 137.24 315.907 137.82C316.615 138.391 317.501 138.676 318.566 138.676Z" fill="black"/>
<path d="M370.068 141V137.955L378.148 130.034C378.92 129.254 379.564 128.561 380.08 127.955C380.595 127.348 380.981 126.761 381.239 126.193C381.496 125.625 381.625 125.019 381.625 124.375C381.625 123.64 381.458 123.011 381.125 122.489C380.792 121.958 380.333 121.549 379.75 121.261C379.167 120.973 378.504 120.83 377.761 120.83C376.996 120.83 376.326 120.989 375.75 121.307C375.174 121.617 374.727 122.061 374.409 122.636C374.098 123.212 373.943 123.898 373.943 124.693H369.932C369.932 123.216 370.269 121.932 370.943 120.841C371.617 119.75 372.545 118.905 373.727 118.307C374.917 117.708 376.28 117.409 377.818 117.409C379.379 117.409 380.75 117.701 381.932 118.284C383.114 118.867 384.03 119.667 384.682 120.682C385.341 121.697 385.67 122.856 385.67 124.159C385.67 125.03 385.504 125.886 385.17 126.727C384.837 127.568 384.25 128.5 383.409 129.523C382.576 130.545 381.405 131.784 379.898 133.239L375.886 137.318V137.477H386.023V141H370.068ZM398.023 117.409C399.136 117.417 400.22 117.614 401.273 118C402.333 118.379 403.288 119 404.136 119.864C404.985 120.72 405.659 121.867 406.159 123.307C406.659 124.746 406.909 126.527 406.909 128.648C406.917 130.648 406.705 132.436 406.273 134.011C405.848 135.58 405.239 136.905 404.443 137.989C403.648 139.072 402.689 139.898 401.568 140.466C400.447 141.034 399.186 141.318 397.784 141.318C396.314 141.318 395.011 141.03 393.875 140.455C392.746 139.879 391.833 139.091 391.136 138.091C390.439 137.091 390.011 135.947 389.852 134.659H394C394.212 135.583 394.644 136.318 395.295 136.864C395.955 137.402 396.784 137.67 397.784 137.67C399.398 137.67 400.64 136.97 401.511 135.568C402.383 134.167 402.818 132.22 402.818 129.727H402.659C402.288 130.394 401.807 130.97 401.216 131.455C400.625 131.932 399.955 132.299 399.205 132.557C398.462 132.814 397.674 132.943 396.841 132.943C395.477 132.943 394.25 132.617 393.159 131.966C392.076 131.314 391.216 130.42 390.58 129.284C389.951 128.148 389.633 126.848 389.625 125.386C389.625 123.871 389.973 122.511 390.67 121.307C391.375 120.095 392.356 119.14 393.614 118.443C394.871 117.739 396.341 117.394 398.023 117.409ZM398.034 120.818C397.216 120.818 396.477 121.019 395.818 121.42C395.167 121.814 394.652 122.352 394.273 123.034C393.902 123.708 393.716 124.462 393.716 125.295C393.723 126.121 393.909 126.871 394.273 127.545C394.644 128.22 395.148 128.754 395.784 129.148C396.428 129.542 397.163 129.739 397.989 129.739C398.602 129.739 399.174 129.621 399.705 129.386C400.235 129.152 400.697 128.826 401.091 128.409C401.492 127.985 401.803 127.504 402.023 126.966C402.25 126.428 402.36 125.86 402.352 125.261C402.352 124.466 402.163 123.731 401.784 123.057C401.413 122.383 400.902 121.841 400.25 121.432C399.606 121.023 398.867 120.818 398.034 120.818ZM423.136 136.636V135.409C423.136 134.508 423.326 133.678 423.705 132.92C424.091 132.163 424.652 131.553 425.386 131.091C426.121 130.629 427.011 130.398 428.057 130.398C429.133 130.398 430.034 130.629 430.761 131.091C431.489 131.545 432.038 132.152 432.409 132.909C432.788 133.667 432.977 134.5 432.977 135.409V136.636C432.977 137.538 432.788 138.367 432.409 139.125C432.03 139.883 431.473 140.492 430.739 140.955C430.011 141.417 429.117 141.648 428.057 141.648C426.996 141.648 426.098 141.417 425.364 140.955C424.629 140.492 424.072 139.883 423.693 139.125C423.322 138.367 423.136 137.538 423.136 136.636ZM426.102 135.409V136.636C426.102 137.235 426.246 137.784 426.534 138.284C426.822 138.784 427.33 139.034 428.057 139.034C428.792 139.034 429.295 138.788 429.568 138.295C429.848 137.795 429.989 137.242 429.989 136.636V135.409C429.989 134.803 429.856 134.25 429.591 133.75C429.326 133.242 428.814 132.989 428.057 132.989C427.345 132.989 426.841 133.242 426.545 133.75C426.25 134.25 426.102 134.803 426.102 135.409ZM411.307 123.318V122.091C411.307 121.182 411.5 120.348 411.886 119.591C412.273 118.833 412.833 118.227 413.568 117.773C414.303 117.311 415.193 117.08 416.239 117.08C417.307 117.08 418.205 117.311 418.932 117.773C419.667 118.227 420.22 118.833 420.591 119.591C420.962 120.348 421.148 121.182 421.148 122.091V123.318C421.148 124.227 420.958 125.061 420.58 125.818C420.208 126.568 419.655 127.17 418.92 127.625C418.186 128.08 417.292 128.307 416.239 128.307C415.17 128.307 414.269 128.08 413.534 127.625C412.807 127.17 412.254 126.564 411.875 125.807C411.496 125.049 411.307 124.22 411.307 123.318ZM414.295 122.091V123.318C414.295 123.924 414.436 124.477 414.716 124.977C415.004 125.47 415.511 125.716 416.239 125.716C416.966 125.716 417.466 125.47 417.739 124.977C418.019 124.477 418.159 123.924 418.159 123.318V122.091C418.159 121.485 418.027 120.932 417.761 120.432C417.496 119.924 416.989 119.67 416.239 119.67C415.519 119.67 415.015 119.924 414.727 120.432C414.439 120.939 414.295 121.492 414.295 122.091ZM412.602 141L428.602 117.727H431.443L415.443 141H412.602Z" fill="#E99F00"/>
<path d="M121.122 343.179C120.909 342.489 120.615 341.871 120.24 341.325C119.874 340.771 119.43 340.298 118.911 339.906C118.399 339.514 117.811 339.22 117.146 339.024C116.482 338.82 115.757 338.717 114.973 338.717C113.567 338.717 112.314 339.071 111.214 339.778C110.115 340.486 109.25 341.526 108.619 342.898C107.997 344.261 107.686 345.923 107.686 347.884C107.686 349.861 107.997 351.536 108.619 352.908C109.241 354.28 110.107 355.324 111.214 356.04C112.322 356.747 113.609 357.101 115.075 357.101C116.405 357.101 117.555 356.845 118.527 356.334C119.507 355.822 120.261 355.098 120.79 354.161C121.318 353.214 121.582 352.107 121.582 350.837L122.656 351.003H115.548V347.295H126.172V350.44C126.172 352.682 125.695 354.621 124.74 356.257C123.786 357.893 122.473 359.155 120.803 360.041C119.132 360.919 117.214 361.358 115.05 361.358C112.638 361.358 110.52 360.817 108.696 359.734C106.881 358.643 105.462 357.097 104.439 355.094C103.425 353.082 102.918 350.696 102.918 347.935C102.918 345.821 103.216 343.933 103.812 342.271C104.418 340.609 105.261 339.199 106.344 338.04C107.426 336.872 108.696 335.986 110.153 335.381C111.611 334.767 113.196 334.46 114.909 334.46C116.358 334.46 117.709 334.673 118.962 335.099C120.214 335.517 121.327 336.114 122.298 336.889C123.278 337.665 124.084 338.585 124.714 339.651C125.345 340.716 125.759 341.892 125.955 343.179H121.122ZM136.204 361.396C134.96 361.396 133.839 361.175 132.842 360.732C131.853 360.28 131.069 359.615 130.49 358.737C129.919 357.859 129.633 356.777 129.633 355.49C129.633 354.382 129.838 353.466 130.247 352.741C130.656 352.017 131.214 351.438 131.922 351.003C132.629 350.568 133.426 350.24 134.312 350.018C135.207 349.788 136.132 349.622 137.086 349.52C138.237 349.401 139.17 349.294 139.886 349.2C140.602 349.098 141.122 348.945 141.446 348.74C141.778 348.527 141.944 348.199 141.944 347.756V347.679C141.944 346.716 141.659 345.97 141.088 345.442C140.517 344.913 139.694 344.649 138.62 344.649C137.487 344.649 136.588 344.896 135.923 345.391C135.267 345.885 134.824 346.469 134.593 347.142L130.272 346.528C130.613 345.335 131.176 344.338 131.96 343.537C132.744 342.727 133.703 342.122 134.836 341.722C135.97 341.312 137.223 341.108 138.595 341.108C139.541 341.108 140.483 341.219 141.42 341.44C142.358 341.662 143.214 342.028 143.99 342.54C144.765 343.043 145.387 343.729 145.856 344.598C146.333 345.467 146.572 346.554 146.572 347.858V361H142.123V358.303H141.97C141.689 358.848 141.292 359.359 140.781 359.837C140.278 360.305 139.643 360.685 138.876 360.974C138.118 361.256 137.227 361.396 136.204 361.396ZM137.406 357.996C138.335 357.996 139.14 357.812 139.822 357.446C140.504 357.071 141.028 356.577 141.395 355.963C141.77 355.349 141.957 354.68 141.957 353.956V351.642C141.812 351.761 141.565 351.872 141.216 351.974C140.875 352.077 140.491 352.166 140.065 352.243C139.639 352.32 139.217 352.388 138.799 352.447C138.382 352.507 138.02 352.558 137.713 352.601C137.022 352.695 136.404 352.848 135.859 353.061C135.314 353.274 134.883 353.572 134.568 353.956C134.252 354.331 134.095 354.817 134.095 355.413C134.095 356.266 134.406 356.909 135.028 357.344C135.65 357.778 136.443 357.996 137.406 357.996ZM155.853 334.818V361H151.225V334.818H155.853ZM166.263 361.396C165.018 361.396 163.898 361.175 162.901 360.732C161.912 360.28 161.128 359.615 160.548 358.737C159.977 357.859 159.692 356.777 159.692 355.49C159.692 354.382 159.896 353.466 160.305 352.741C160.714 352.017 161.273 351.438 161.98 351.003C162.688 350.568 163.484 350.24 164.371 350.018C165.266 349.788 166.19 349.622 167.145 349.52C168.295 349.401 169.229 349.294 169.945 349.2C170.661 349.098 171.18 348.945 171.504 348.74C171.837 348.527 172.003 348.199 172.003 347.756V347.679C172.003 346.716 171.717 345.97 171.146 345.442C170.575 344.913 169.753 344.649 168.679 344.649C167.545 344.649 166.646 344.896 165.982 345.391C165.325 345.885 164.882 346.469 164.652 347.142L160.331 346.528C160.672 345.335 161.234 344.338 162.018 343.537C162.803 342.727 163.761 342.122 164.895 341.722C166.028 341.312 167.281 341.108 168.653 341.108C169.599 341.108 170.541 341.219 171.479 341.44C172.416 341.662 173.273 342.028 174.048 342.54C174.824 343.043 175.446 343.729 175.915 344.598C176.392 345.467 176.631 346.554 176.631 347.858V361H172.182V358.303H172.028C171.747 358.848 171.351 359.359 170.839 359.837C170.337 360.305 169.702 360.685 168.935 360.974C168.176 361.256 167.286 361.396 166.263 361.396ZM167.464 357.996C168.393 357.996 169.199 357.812 169.881 357.446C170.563 357.071 171.087 356.577 171.453 355.963C171.828 355.349 172.016 354.68 172.016 353.956V351.642C171.871 351.761 171.624 351.872 171.274 351.974C170.933 352.077 170.55 352.166 170.124 352.243C169.697 352.32 169.276 352.388 168.858 352.447C168.44 352.507 168.078 352.558 167.771 352.601C167.081 352.695 166.463 352.848 165.918 353.061C165.372 353.274 164.942 353.572 164.626 353.956C164.311 354.331 164.153 354.817 164.153 355.413C164.153 356.266 164.464 356.909 165.087 357.344C165.709 357.778 166.501 357.996 167.464 357.996ZM185.068 341.364L189.031 348.612L193.058 341.364H197.955L192.036 351.182L198.057 361H193.186L189.031 353.93L184.915 361H180.006L185.989 351.182L180.159 341.364H185.068ZM204.411 368.364C203.78 368.364 203.196 368.313 202.659 368.21C202.131 368.116 201.709 368.006 201.393 367.878L202.467 364.273C203.141 364.469 203.741 364.563 204.27 364.554C204.798 364.545 205.263 364.379 205.663 364.055C206.072 363.74 206.418 363.212 206.699 362.47L207.095 361.409L199.974 341.364H204.884L209.409 356.193H209.614L214.152 341.364H219.074L211.212 363.378C210.845 364.418 210.359 365.308 209.754 366.05C209.149 366.8 208.408 367.371 207.53 367.763C206.661 368.163 205.621 368.364 204.411 368.364ZM245.639 342.016C245.52 340.899 245.017 340.03 244.131 339.408C243.253 338.786 242.111 338.474 240.705 338.474C239.716 338.474 238.868 338.624 238.161 338.922C237.453 339.22 236.912 339.625 236.537 340.136C236.162 340.648 235.97 341.232 235.962 341.888C235.962 342.433 236.085 342.906 236.332 343.307C236.588 343.707 236.933 344.048 237.368 344.33C237.803 344.602 238.284 344.832 238.812 345.02C239.341 345.207 239.874 345.365 240.411 345.493L242.865 346.107C243.854 346.337 244.804 346.648 245.716 347.04C246.636 347.432 247.459 347.926 248.183 348.523C248.916 349.119 249.496 349.839 249.922 350.683C250.348 351.527 250.561 352.516 250.561 353.649C250.561 355.183 250.169 356.534 249.385 357.702C248.601 358.861 247.467 359.768 245.984 360.425C244.51 361.072 242.724 361.396 240.628 361.396C238.591 361.396 236.822 361.081 235.322 360.45C233.831 359.82 232.663 358.899 231.82 357.689C230.984 356.479 230.533 355.004 230.464 353.266H235.131C235.199 354.178 235.48 354.936 235.974 355.541C236.469 356.146 237.112 356.598 237.905 356.896C238.706 357.195 239.601 357.344 240.589 357.344C241.621 357.344 242.524 357.19 243.3 356.884C244.084 356.568 244.697 356.134 245.141 355.58C245.584 355.017 245.81 354.361 245.818 353.611C245.81 352.929 245.609 352.366 245.217 351.923C244.825 351.472 244.276 351.097 243.568 350.798C242.869 350.491 242.051 350.219 241.114 349.98L238.135 349.213C235.979 348.659 234.274 347.82 233.021 346.695C231.777 345.561 231.155 344.057 231.155 342.182C231.155 340.639 231.572 339.288 232.408 338.129C233.251 336.97 234.398 336.071 235.847 335.432C237.295 334.784 238.936 334.46 240.768 334.46C242.626 334.46 244.254 334.784 245.652 335.432C247.058 336.071 248.162 336.962 248.963 338.104C249.764 339.237 250.178 340.541 250.203 342.016H245.639ZM254.534 361V357.574L263.623 348.663C264.493 347.786 265.217 347.006 265.797 346.324C266.376 345.642 266.811 344.982 267.1 344.342C267.39 343.703 267.535 343.021 267.535 342.297C267.535 341.47 267.348 340.763 266.973 340.175C266.598 339.578 266.082 339.118 265.426 338.794C264.77 338.47 264.024 338.308 263.189 338.308C262.328 338.308 261.574 338.487 260.926 338.845C260.278 339.195 259.775 339.693 259.417 340.341C259.068 340.989 258.893 341.76 258.893 342.655H254.38C254.38 340.993 254.76 339.548 255.518 338.321C256.277 337.094 257.321 336.143 258.65 335.47C259.988 334.797 261.522 334.46 263.252 334.46C265.008 334.46 266.551 334.788 267.88 335.445C269.21 336.101 270.241 337 270.974 338.142C271.716 339.284 272.086 340.588 272.086 342.054C272.086 343.034 271.899 343.997 271.524 344.943C271.149 345.889 270.488 346.937 269.542 348.088C268.605 349.239 267.288 350.632 265.592 352.268L261.079 356.858V357.037H272.483V361H254.534ZM285.995 361.358C284.291 361.358 282.765 361.038 281.419 360.399C280.072 359.751 279.002 358.865 278.21 357.74C277.426 356.615 277.008 355.328 276.957 353.879H281.559C281.645 354.953 282.109 355.831 282.953 356.513C283.797 357.186 284.811 357.523 285.995 357.523C286.924 357.523 287.751 357.31 288.475 356.884C289.2 356.457 289.771 355.865 290.189 355.107C290.606 354.348 290.811 353.483 290.802 352.511C290.811 351.523 290.602 350.645 290.176 349.878C289.75 349.111 289.166 348.51 288.424 348.075C287.683 347.632 286.831 347.411 285.868 347.411C285.083 347.402 284.312 347.547 283.554 347.845C282.795 348.143 282.194 348.536 281.751 349.021L277.468 348.318L278.836 334.818H294.024V338.781H282.761L282.007 345.723H282.16C282.646 345.152 283.332 344.679 284.218 344.304C285.105 343.92 286.076 343.729 287.133 343.729C288.718 343.729 290.133 344.104 291.377 344.854C292.622 345.595 293.602 346.618 294.318 347.922C295.034 349.226 295.392 350.717 295.392 352.396C295.392 354.126 294.991 355.669 294.19 357.024C293.397 358.371 292.294 359.432 290.879 360.207C289.473 360.974 287.845 361.358 285.995 361.358Z" fill="black"/>
<path d="M380.534 336.727V360H376.318V340.83H376.182L370.739 344.307V340.443L376.523 336.727H380.534ZM394.795 360.318C393.159 360.318 391.705 360.038 390.432 359.477C389.167 358.917 388.167 358.136 387.432 357.136C386.697 356.136 386.307 354.981 386.261 353.67H390.534C390.572 354.299 390.78 354.848 391.159 355.318C391.538 355.78 392.042 356.14 392.67 356.398C393.299 356.655 394.004 356.784 394.784 356.784C395.617 356.784 396.356 356.64 397 356.352C397.644 356.057 398.148 355.648 398.511 355.125C398.875 354.602 399.053 354 399.045 353.318C399.053 352.614 398.871 351.992 398.5 351.455C398.129 350.917 397.591 350.496 396.886 350.193C396.189 349.89 395.348 349.739 394.364 349.739H392.307V346.489H394.364C395.174 346.489 395.883 346.348 396.489 346.068C397.102 345.788 397.583 345.394 397.932 344.886C398.28 344.371 398.451 343.777 398.443 343.102C398.451 342.443 398.303 341.871 398 341.386C397.705 340.894 397.284 340.511 396.739 340.239C396.201 339.966 395.568 339.83 394.841 339.83C394.129 339.83 393.47 339.958 392.864 340.216C392.258 340.473 391.769 340.841 391.398 341.318C391.027 341.788 390.83 342.348 390.807 343H386.75C386.78 341.697 387.155 340.553 387.875 339.568C388.602 338.576 389.572 337.803 390.784 337.25C391.996 336.689 393.356 336.409 394.864 336.409C396.417 336.409 397.765 336.701 398.909 337.284C400.061 337.86 400.951 338.636 401.58 339.614C402.208 340.591 402.523 341.67 402.523 342.852C402.53 344.163 402.144 345.261 401.364 346.148C400.591 347.034 399.576 347.614 398.318 347.886V348.068C399.955 348.295 401.208 348.902 402.08 349.886C402.958 350.864 403.394 352.08 403.386 353.534C403.386 354.837 403.015 356.004 402.273 357.034C401.538 358.057 400.523 358.86 399.227 359.443C397.939 360.027 396.462 360.318 394.795 360.318ZM419.73 355.636V354.409C419.73 353.508 419.92 352.678 420.298 351.92C420.685 351.163 421.245 350.553 421.98 350.091C422.715 349.629 423.605 349.398 424.651 349.398C425.726 349.398 426.628 349.629 427.355 350.091C428.082 350.545 428.632 351.152 429.003 351.909C429.382 352.667 429.571 353.5 429.571 354.409V355.636C429.571 356.538 429.382 357.367 429.003 358.125C428.624 358.883 428.067 359.492 427.332 359.955C426.605 360.417 425.711 360.648 424.651 360.648C423.59 360.648 422.692 360.417 421.957 359.955C421.223 359.492 420.666 358.883 420.287 358.125C419.916 357.367 419.73 356.538 419.73 355.636ZM422.696 354.409V355.636C422.696 356.235 422.84 356.784 423.128 357.284C423.416 357.784 423.923 358.034 424.651 358.034C425.385 358.034 425.889 357.788 426.162 357.295C426.442 356.795 426.582 356.242 426.582 355.636V354.409C426.582 353.803 426.45 353.25 426.185 352.75C425.92 352.242 425.408 351.989 424.651 351.989C423.938 351.989 423.435 352.242 423.139 352.75C422.844 353.25 422.696 353.803 422.696 354.409ZM407.901 342.318V341.091C407.901 340.182 408.094 339.348 408.48 338.591C408.866 337.833 409.427 337.227 410.162 336.773C410.897 336.311 411.787 336.08 412.832 336.08C413.901 336.08 414.798 336.311 415.526 336.773C416.26 337.227 416.813 337.833 417.185 338.591C417.556 339.348 417.741 340.182 417.741 341.091V342.318C417.741 343.227 417.552 344.061 417.173 344.818C416.802 345.568 416.249 346.17 415.514 346.625C414.779 347.08 413.885 347.307 412.832 347.307C411.764 347.307 410.863 347.08 410.128 346.625C409.401 346.17 408.848 345.564 408.469 344.807C408.09 344.049 407.901 343.22 407.901 342.318ZM410.889 341.091V342.318C410.889 342.924 411.029 343.477 411.31 343.977C411.598 344.47 412.105 344.716 412.832 344.716C413.56 344.716 414.06 344.47 414.332 343.977C414.613 343.477 414.753 342.924 414.753 342.318V341.091C414.753 340.485 414.62 339.932 414.355 339.432C414.09 338.924 413.582 338.67 412.832 338.67C412.113 338.67 411.609 338.924 411.321 339.432C411.033 339.939 410.889 340.492 410.889 341.091ZM409.196 360L425.196 336.727H428.037L412.037 360H409.196Z" fill="#E90000"/>
<path d="M558.582 145V118.818H568.401C570.412 118.818 572.099 119.193 573.463 119.943C574.835 120.693 575.871 121.724 576.57 123.037C577.277 124.341 577.631 125.824 577.631 127.486C577.631 129.165 577.277 130.656 576.57 131.96C575.862 133.264 574.818 134.291 573.438 135.041C572.057 135.783 570.357 136.153 568.337 136.153H561.83V132.254H567.697C568.874 132.254 569.837 132.05 570.587 131.641C571.337 131.232 571.891 130.669 572.249 129.953C572.615 129.237 572.798 128.415 572.798 127.486C572.798 126.557 572.615 125.739 572.249 125.031C571.891 124.324 571.332 123.774 570.574 123.382C569.824 122.982 568.857 122.781 567.672 122.781H563.325V145H558.582ZM581.546 145V125.364H586.174V145H581.546ZM583.873 122.577C583.14 122.577 582.509 122.334 581.98 121.848C581.452 121.354 581.188 120.761 581.188 120.071C581.188 119.372 581.452 118.78 581.98 118.294C582.509 117.8 583.14 117.553 583.873 117.553C584.614 117.553 585.245 117.8 585.765 118.294C586.293 118.78 586.557 119.372 586.557 120.071C586.557 120.761 586.293 121.354 585.765 121.848C585.245 122.334 584.614 122.577 583.873 122.577ZM594.717 125.364L598.68 132.612L602.707 125.364H607.603L601.684 135.182L607.705 145H602.835L598.68 137.93L594.563 145H589.654L595.637 135.182L589.808 125.364H594.717ZM619.137 145.384C617.169 145.384 615.468 144.974 614.037 144.156C612.613 143.33 611.518 142.162 610.751 140.653C609.984 139.136 609.6 137.351 609.6 135.297C609.6 133.277 609.984 131.504 610.751 129.979C611.527 128.445 612.609 127.251 613.998 126.399C615.387 125.538 617.02 125.108 618.895 125.108C620.105 125.108 621.247 125.304 622.321 125.696C623.403 126.08 624.358 126.676 625.184 127.486C626.02 128.295 626.676 129.327 627.153 130.58C627.63 131.824 627.869 133.307 627.869 135.028V136.447H611.774V133.328H623.433C623.424 132.442 623.233 131.653 622.858 130.963C622.483 130.264 621.958 129.714 621.285 129.314C620.62 128.913 619.845 128.713 618.958 128.713C618.012 128.713 617.181 128.943 616.466 129.403C615.75 129.855 615.191 130.452 614.791 131.193C614.399 131.926 614.199 132.732 614.19 133.609V136.332C614.19 137.474 614.399 138.455 614.816 139.273C615.234 140.082 615.818 140.705 616.568 141.139C617.318 141.565 618.196 141.778 619.201 141.778C619.875 141.778 620.484 141.685 621.029 141.497C621.575 141.301 622.048 141.016 622.449 140.641C622.849 140.266 623.152 139.801 623.356 139.247L627.677 139.733C627.404 140.875 626.885 141.872 626.118 142.724C625.359 143.568 624.387 144.224 623.203 144.693C622.018 145.153 620.663 145.384 619.137 145.384ZM636.412 118.818V145H631.784V118.818H636.412ZM660.699 118.818V145H655.956V123.433H655.802L649.679 127.345V122.999L656.186 118.818H660.699ZM677.024 145.499C674.919 145.499 673.112 144.966 671.603 143.901C670.103 142.827 668.949 141.28 668.139 139.26C667.338 137.232 666.937 134.79 666.937 131.935C666.946 129.08 667.35 126.651 668.152 124.648C668.961 122.636 670.116 121.102 671.616 120.045C673.125 118.989 674.927 118.46 677.024 118.46C679.12 118.46 680.923 118.989 682.431 120.045C683.94 121.102 685.095 122.636 685.896 124.648C686.706 126.659 687.11 129.088 687.11 131.935C687.11 134.798 686.706 137.244 685.896 139.273C685.095 141.293 683.94 142.835 682.431 143.901C680.931 144.966 679.129 145.499 677.024 145.499ZM677.024 141.497C678.66 141.497 679.951 140.692 680.897 139.081C681.852 137.462 682.329 135.08 682.329 131.935C682.329 129.855 682.112 128.108 681.677 126.693C681.243 125.278 680.629 124.213 679.836 123.497C679.044 122.773 678.106 122.411 677.024 122.411C675.396 122.411 674.109 123.22 673.163 124.839C672.217 126.45 671.74 128.815 671.731 131.935C671.723 134.023 671.931 135.778 672.358 137.202C672.792 138.625 673.406 139.699 674.199 140.423C674.991 141.139 675.933 141.497 677.024 141.497ZM700.543 145V118.818H710.362C712.373 118.818 714.06 119.193 715.424 119.943C716.796 120.693 717.832 121.724 718.531 123.037C719.238 124.341 719.592 125.824 719.592 127.486C719.592 129.165 719.238 130.656 718.531 131.96C717.823 133.264 716.779 134.291 715.398 135.041C714.018 135.783 712.317 136.153 710.298 136.153H703.79V132.254H709.658C710.835 132.254 711.798 132.05 712.548 131.641C713.298 131.232 713.852 130.669 714.21 129.953C714.576 129.237 714.759 128.415 714.759 127.486C714.759 126.557 714.576 125.739 714.21 125.031C713.852 124.324 713.293 123.774 712.535 123.382C711.785 122.982 710.817 122.781 709.633 122.781H705.286V145H700.543ZM723.507 145V125.364H727.994V128.636H728.199C728.556 127.503 729.17 126.629 730.039 126.016C730.917 125.393 731.919 125.082 733.044 125.082C733.299 125.082 733.585 125.095 733.9 125.121C734.224 125.138 734.493 125.168 734.706 125.21V129.467C734.51 129.399 734.199 129.339 733.772 129.288C733.355 129.229 732.95 129.199 732.558 129.199C731.714 129.199 730.956 129.382 730.282 129.749C729.618 130.107 729.093 130.605 728.71 131.244C728.326 131.884 728.135 132.621 728.135 133.456V145H723.507ZM745.537 145.384C743.619 145.384 741.957 144.962 740.551 144.118C739.145 143.274 738.054 142.094 737.278 140.577C736.511 139.06 736.128 137.287 736.128 135.259C736.128 133.23 736.511 131.453 737.278 129.928C738.054 128.402 739.145 127.217 740.551 126.374C741.957 125.53 743.619 125.108 745.537 125.108C747.455 125.108 749.116 125.53 750.523 126.374C751.929 127.217 753.016 128.402 753.783 129.928C754.558 131.453 754.946 133.23 754.946 135.259C754.946 137.287 754.558 139.06 753.783 140.577C753.016 142.094 751.929 143.274 750.523 144.118C749.116 144.962 747.455 145.384 745.537 145.384ZM745.562 141.676C746.602 141.676 747.472 141.391 748.17 140.82C748.869 140.24 749.389 139.464 749.73 138.493C750.08 137.521 750.254 136.439 750.254 135.246C750.254 134.044 750.08 132.957 749.73 131.986C749.389 131.006 748.869 130.226 748.17 129.646C747.472 129.067 746.602 128.777 745.562 128.777C744.497 128.777 743.611 129.067 742.903 129.646C742.205 130.226 741.68 131.006 741.331 131.986C740.99 132.957 740.82 134.044 740.82 135.246C740.82 136.439 740.99 137.521 741.331 138.493C741.68 139.464 742.205 140.24 742.903 140.82C743.611 141.391 744.497 141.676 745.562 141.676Z" fill="black"/>
<path d="M826.92 144L836.818 124.409V124.25H825.33V120.727H841.182V124.33L831.295 144H826.92ZM852.653 144.318C850.964 144.318 849.464 144.034 848.153 143.466C846.85 142.898 845.828 142.121 845.085 141.136C844.35 140.144 843.987 139.019 843.994 137.761C843.987 136.784 844.199 135.886 844.631 135.068C845.063 134.25 845.646 133.568 846.381 133.023C847.123 132.47 847.949 132.117 848.858 131.966V131.807C847.661 131.542 846.691 130.932 845.949 129.977C845.214 129.015 844.85 127.905 844.858 126.648C844.85 125.451 845.184 124.383 845.858 123.443C846.532 122.504 847.456 121.765 848.631 121.227C849.805 120.682 851.146 120.409 852.653 120.409C854.146 120.409 855.475 120.682 856.642 121.227C857.816 121.765 858.741 122.504 859.415 123.443C860.097 124.383 860.438 125.451 860.438 126.648C860.438 127.905 860.062 129.015 859.312 129.977C858.57 130.932 857.612 131.542 856.438 131.807V131.966C857.347 132.117 858.165 132.47 858.892 133.023C859.627 133.568 860.21 134.25 860.642 135.068C861.081 135.886 861.301 136.784 861.301 137.761C861.301 139.019 860.93 140.144 860.188 141.136C859.445 142.121 858.422 142.898 857.119 143.466C855.824 144.034 854.335 144.318 852.653 144.318ZM852.653 141.068C853.525 141.068 854.282 140.92 854.926 140.625C855.57 140.322 856.07 139.898 856.426 139.352C856.782 138.807 856.964 138.178 856.972 137.466C856.964 136.723 856.771 136.068 856.392 135.5C856.021 134.924 855.509 134.473 854.858 134.148C854.214 133.822 853.479 133.659 852.653 133.659C851.82 133.659 851.078 133.822 850.426 134.148C849.775 134.473 849.259 134.924 848.881 135.5C848.509 136.068 848.328 136.723 848.335 137.466C848.328 138.178 848.502 138.807 848.858 139.352C849.214 139.89 849.714 140.311 850.358 140.614C851.009 140.917 851.775 141.068 852.653 141.068ZM852.653 130.466C853.366 130.466 853.994 130.322 854.54 130.034C855.093 129.746 855.528 129.345 855.847 128.83C856.165 128.314 856.328 127.72 856.335 127.045C856.328 126.379 856.169 125.795 855.858 125.295C855.547 124.788 855.116 124.398 854.562 124.125C854.009 123.845 853.373 123.705 852.653 123.705C851.919 123.705 851.271 123.845 850.71 124.125C850.157 124.398 849.725 124.788 849.415 125.295C849.112 125.795 848.964 126.379 848.972 127.045C848.964 127.72 849.116 128.314 849.426 128.83C849.744 129.337 850.18 129.739 850.733 130.034C851.294 130.322 851.934 130.466 852.653 130.466ZM877.48 139.636V138.409C877.48 137.508 877.67 136.678 878.048 135.92C878.435 135.163 878.995 134.553 879.73 134.091C880.465 133.629 881.355 133.398 882.401 133.398C883.476 133.398 884.378 133.629 885.105 134.091C885.832 134.545 886.382 135.152 886.753 135.909C887.132 136.667 887.321 137.5 887.321 138.409V139.636C887.321 140.538 887.132 141.367 886.753 142.125C886.374 142.883 885.817 143.492 885.082 143.955C884.355 144.417 883.461 144.648 882.401 144.648C881.34 144.648 880.442 144.417 879.707 143.955C878.973 143.492 878.416 142.883 878.037 142.125C877.666 141.367 877.48 140.538 877.48 139.636ZM880.446 138.409V139.636C880.446 140.235 880.59 140.784 880.878 141.284C881.166 141.784 881.673 142.034 882.401 142.034C883.135 142.034 883.639 141.788 883.912 141.295C884.192 140.795 884.332 140.242 884.332 139.636V138.409C884.332 137.803 884.2 137.25 883.935 136.75C883.67 136.242 883.158 135.989 882.401 135.989C881.688 135.989 881.185 136.242 880.889 136.75C880.594 137.25 880.446 137.803 880.446 138.409ZM865.651 126.318V125.091C865.651 124.182 865.844 123.348 866.23 122.591C866.616 121.833 867.177 121.227 867.912 120.773C868.647 120.311 869.537 120.08 870.582 120.08C871.651 120.08 872.548 120.311 873.276 120.773C874.01 121.227 874.563 121.833 874.935 122.591C875.306 123.348 875.491 124.182 875.491 125.091V126.318C875.491 127.227 875.302 128.061 874.923 128.818C874.552 129.568 873.999 130.17 873.264 130.625C872.529 131.08 871.635 131.307 870.582 131.307C869.514 131.307 868.613 131.08 867.878 130.625C867.151 130.17 866.598 129.564 866.219 128.807C865.84 128.049 865.651 127.22 865.651 126.318ZM868.639 125.091V126.318C868.639 126.924 868.779 127.477 869.06 127.977C869.348 128.47 869.855 128.716 870.582 128.716C871.31 128.716 871.81 128.47 872.082 127.977C872.363 127.477 872.503 126.924 872.503 126.318V125.091C872.503 124.485 872.37 123.932 872.105 123.432C871.84 122.924 871.332 122.67 870.582 122.67C869.863 122.67 869.359 122.924 869.071 123.432C868.783 123.939 868.639 124.492 868.639 125.091ZM866.946 144L882.946 120.727H885.787L869.787 144H866.946Z" fill="#00CB40"/>
<path d="M557.432 338.794V334.818H578.321V338.794H570.229V361H565.524V338.794H557.432ZM585.122 361.396C583.878 361.396 582.757 361.175 581.76 360.732C580.771 360.28 579.987 359.615 579.408 358.737C578.837 357.859 578.551 356.777 578.551 355.49C578.551 354.382 578.756 353.466 579.165 352.741C579.574 352.017 580.132 351.438 580.839 351.003C581.547 350.568 582.344 350.24 583.23 350.018C584.125 349.788 585.05 349.622 586.004 349.52C587.155 349.401 588.088 349.294 588.804 349.2C589.52 349.098 590.04 348.945 590.364 348.74C590.696 348.527 590.862 348.199 590.862 347.756V347.679C590.862 346.716 590.577 345.97 590.006 345.442C589.435 344.913 588.612 344.649 587.538 344.649C586.405 344.649 585.506 344.896 584.841 345.391C584.185 345.885 583.741 346.469 583.511 347.142L579.19 346.528C579.531 345.335 580.094 344.338 580.878 343.537C581.662 342.727 582.621 342.122 583.754 341.722C584.888 341.312 586.141 341.108 587.513 341.108C588.459 341.108 589.401 341.219 590.338 341.44C591.276 341.662 592.132 342.028 592.908 342.54C593.683 343.043 594.305 343.729 594.774 344.598C595.251 345.467 595.49 346.554 595.49 347.858V361H591.041V358.303H590.888C590.607 358.848 590.21 359.359 589.699 359.837C589.196 360.305 588.561 360.685 587.794 360.974C587.036 361.256 586.145 361.396 585.122 361.396ZM586.324 357.996C587.253 357.996 588.058 357.812 588.74 357.446C589.422 357.071 589.946 356.577 590.312 355.963C590.688 355.349 590.875 354.68 590.875 353.956V351.642C590.73 351.761 590.483 351.872 590.134 351.974C589.793 352.077 589.409 352.166 588.983 352.243C588.557 352.32 588.135 352.388 587.717 352.447C587.3 352.507 586.938 352.558 586.631 352.601C585.94 352.695 585.322 352.848 584.777 353.061C584.232 353.274 583.801 353.572 583.486 353.956C583.17 354.331 583.013 354.817 583.013 355.413C583.013 356.266 583.324 356.909 583.946 357.344C584.568 357.778 585.361 357.996 586.324 357.996ZM600.348 361V334.818H604.976V344.611H605.168C605.406 344.134 605.743 343.626 606.178 343.089C606.612 342.544 607.2 342.08 607.942 341.696C608.683 341.304 609.629 341.108 610.78 341.108C612.297 341.108 613.665 341.496 614.884 342.271C616.111 343.038 617.082 344.176 617.798 345.685C618.523 347.185 618.885 349.026 618.885 351.207C618.885 353.364 618.531 355.196 617.824 356.705C617.116 358.213 616.153 359.364 614.935 360.156C613.716 360.949 612.335 361.345 610.793 361.345C609.668 361.345 608.734 361.158 607.993 360.783C607.251 360.408 606.655 359.956 606.203 359.428C605.76 358.891 605.415 358.384 605.168 357.906H604.899V361H600.348ZM604.886 351.182C604.886 352.452 605.065 353.564 605.423 354.518C605.79 355.473 606.314 356.219 606.996 356.756C607.686 357.284 608.521 357.548 609.501 357.548C610.524 357.548 611.381 357.276 612.071 356.73C612.761 356.176 613.281 355.422 613.631 354.467C613.989 353.504 614.168 352.409 614.168 351.182C614.168 349.963 613.993 348.881 613.643 347.935C613.294 346.989 612.774 346.247 612.084 345.71C611.393 345.173 610.533 344.905 609.501 344.905C608.513 344.905 607.673 345.165 606.983 345.685C606.293 346.205 605.768 346.933 605.411 347.871C605.061 348.808 604.886 349.912 604.886 351.182ZM646.182 342.016C646.063 340.899 645.56 340.03 644.674 339.408C643.796 338.786 642.654 338.474 641.248 338.474C640.259 338.474 639.411 338.624 638.703 338.922C637.996 339.22 637.455 339.625 637.08 340.136C636.705 340.648 636.513 341.232 636.505 341.888C636.505 342.433 636.628 342.906 636.875 343.307C637.131 343.707 637.476 344.048 637.911 344.33C638.346 344.602 638.827 344.832 639.355 345.02C639.884 345.207 640.417 345.365 640.953 345.493L643.408 346.107C644.397 346.337 645.347 346.648 646.259 347.04C647.179 347.432 648.002 347.926 648.726 348.523C649.459 349.119 650.039 349.839 650.465 350.683C650.891 351.527 651.104 352.516 651.104 353.649C651.104 355.183 650.712 356.534 649.928 357.702C649.144 358.861 648.01 359.768 646.527 360.425C645.053 361.072 643.267 361.396 641.171 361.396C639.134 361.396 637.365 361.081 635.865 360.45C634.374 359.82 633.206 358.899 632.363 357.689C631.527 356.479 631.076 355.004 631.007 353.266H635.674C635.742 354.178 636.023 354.936 636.517 355.541C637.012 356.146 637.655 356.598 638.448 356.896C639.249 357.195 640.144 357.344 641.132 357.344C642.164 357.344 643.067 357.19 643.843 356.884C644.627 356.568 645.24 356.134 645.684 355.58C646.127 355.017 646.353 354.361 646.361 353.611C646.353 352.929 646.152 352.366 645.76 351.923C645.368 351.472 644.819 351.097 644.111 350.798C643.412 350.491 642.594 350.219 641.657 349.98L638.678 349.213C636.522 348.659 634.817 347.82 633.564 346.695C632.32 345.561 631.698 344.057 631.698 342.182C631.698 340.639 632.115 339.288 632.951 338.129C633.794 336.97 634.941 336.071 636.39 335.432C637.838 334.784 639.479 334.46 641.311 334.46C643.169 334.46 644.797 334.784 646.195 335.432C647.601 336.071 648.705 336.962 649.506 338.104C650.307 339.237 650.721 340.541 650.746 342.016H646.182ZM664.665 361.358C663.412 361.349 662.189 361.132 660.996 360.706C659.803 360.271 658.729 359.568 657.774 358.597C656.82 357.616 656.061 356.317 655.499 354.697C654.936 353.07 654.659 351.054 654.668 348.651C654.668 346.409 654.906 344.411 655.384 342.655C655.861 340.899 656.547 339.416 657.442 338.206C658.337 336.987 659.415 336.058 660.676 335.419C661.946 334.78 663.365 334.46 664.933 334.46C666.578 334.46 668.036 334.784 669.305 335.432C670.584 336.08 671.615 336.966 672.399 338.091C673.183 339.207 673.669 340.469 673.857 341.875H669.19C668.952 340.869 668.462 340.068 667.72 339.472C666.987 338.866 666.058 338.564 664.933 338.564C663.118 338.564 661.72 339.352 660.74 340.929C659.768 342.506 659.278 344.67 659.27 347.423H659.449C659.866 346.673 660.408 346.03 661.072 345.493C661.737 344.956 662.487 344.543 663.322 344.253C664.166 343.955 665.057 343.805 665.994 343.805C667.528 343.805 668.905 344.172 670.124 344.905C671.351 345.638 672.322 346.648 673.038 347.935C673.754 349.213 674.108 350.679 674.099 352.332C674.108 354.054 673.716 355.601 672.923 356.973C672.131 358.337 671.027 359.411 669.612 360.195C668.197 360.979 666.548 361.366 664.665 361.358ZM664.639 357.523C665.568 357.523 666.399 357.297 667.132 356.845C667.865 356.393 668.445 355.784 668.871 355.017C669.297 354.25 669.506 353.389 669.497 352.435C669.506 351.497 669.301 350.649 668.884 349.891C668.474 349.132 667.908 348.531 667.183 348.088C666.459 347.645 665.632 347.423 664.703 347.423C664.013 347.423 663.369 347.555 662.773 347.82C662.176 348.084 661.656 348.45 661.213 348.919C660.77 349.379 660.42 349.916 660.165 350.53C659.918 351.135 659.79 351.783 659.781 352.473C659.79 353.385 660.003 354.224 660.42 354.991C660.838 355.759 661.413 356.372 662.146 356.832C662.879 357.293 663.71 357.523 664.639 357.523ZM687.606 361V334.818H692.349V357.024H703.88V361H687.606ZM707.792 361V341.364H712.42V361H707.792ZM710.119 338.577C709.386 338.577 708.755 338.334 708.227 337.848C707.698 337.354 707.434 336.761 707.434 336.071C707.434 335.372 707.698 334.78 708.227 334.294C708.755 333.8 709.386 333.553 710.119 333.553C710.86 333.553 711.491 333.8 712.011 334.294C712.539 334.78 712.803 335.372 712.803 336.071C712.803 336.761 712.539 337.354 712.011 337.848C711.491 338.334 710.86 338.577 710.119 338.577ZM726.984 341.364V344.943H715.696V341.364H726.984ZM718.483 336.659H723.11V355.094C723.11 355.716 723.204 356.193 723.392 356.526C723.588 356.849 723.843 357.071 724.159 357.19C724.474 357.31 724.824 357.369 725.207 357.369C725.497 357.369 725.761 357.348 726 357.305C726.247 357.263 726.434 357.224 726.562 357.19L727.342 360.808C727.095 360.893 726.741 360.987 726.281 361.089C725.829 361.192 725.275 361.251 724.619 361.268C723.46 361.303 722.416 361.128 721.487 360.744C720.558 360.352 719.821 359.747 719.275 358.929C718.738 358.111 718.474 357.088 718.483 355.861V336.659ZM739.337 361.384C737.368 361.384 735.668 360.974 734.236 360.156C732.813 359.33 731.717 358.162 730.95 356.653C730.183 355.136 729.8 353.351 729.8 351.297C729.8 349.277 730.183 347.504 730.95 345.979C731.726 344.445 732.808 343.251 734.197 342.399C735.587 341.538 737.219 341.108 739.094 341.108C740.304 341.108 741.446 341.304 742.52 341.696C743.602 342.08 744.557 342.676 745.384 343.486C746.219 344.295 746.875 345.327 747.352 346.58C747.83 347.824 748.068 349.307 748.068 351.028V352.447H731.973V349.328H743.632C743.624 348.442 743.432 347.653 743.057 346.963C742.682 346.264 742.158 345.714 741.484 345.314C740.82 344.913 740.044 344.713 739.158 344.713C738.212 344.713 737.381 344.943 736.665 345.403C735.949 345.855 735.391 346.452 734.99 347.193C734.598 347.926 734.398 348.732 734.389 349.609V352.332C734.389 353.474 734.598 354.455 735.016 355.273C735.433 356.082 736.017 356.705 736.767 357.139C737.517 357.565 738.395 357.778 739.401 357.778C740.074 357.778 740.683 357.685 741.229 357.497C741.774 357.301 742.247 357.016 742.648 356.641C743.048 356.266 743.351 355.801 743.555 355.247L747.876 355.733C747.604 356.875 747.084 357.872 746.317 358.724C745.558 359.568 744.587 360.224 743.402 360.693C742.217 361.153 740.862 361.384 739.337 361.384Z" fill="black"/>
<path d="M834.148 336.409C835.261 336.417 836.345 336.614 837.398 337C838.458 337.379 839.413 338 840.261 338.864C841.11 339.72 841.784 340.867 842.284 342.307C842.784 343.746 843.034 345.527 843.034 347.648C843.042 349.648 842.83 351.436 842.398 353.011C841.973 354.58 841.364 355.905 840.568 356.989C839.773 358.072 838.814 358.898 837.693 359.466C836.572 360.034 835.311 360.318 833.909 360.318C832.439 360.318 831.136 360.03 830 359.455C828.871 358.879 827.958 358.091 827.261 357.091C826.564 356.091 826.136 354.947 825.977 353.659H830.125C830.337 354.583 830.769 355.318 831.42 355.864C832.08 356.402 832.909 356.67 833.909 356.67C835.523 356.67 836.765 355.97 837.636 354.568C838.508 353.167 838.943 351.22 838.943 348.727H838.784C838.413 349.394 837.932 349.97 837.341 350.455C836.75 350.932 836.08 351.299 835.33 351.557C834.587 351.814 833.799 351.943 832.966 351.943C831.602 351.943 830.375 351.617 829.284 350.966C828.201 350.314 827.341 349.42 826.705 348.284C826.076 347.148 825.758 345.848 825.75 344.386C825.75 342.871 826.098 341.511 826.795 340.307C827.5 339.095 828.481 338.14 829.739 337.443C830.996 336.739 832.466 336.394 834.148 336.409ZM834.159 339.818C833.341 339.818 832.602 340.019 831.943 340.42C831.292 340.814 830.777 341.352 830.398 342.034C830.027 342.708 829.841 343.462 829.841 344.295C829.848 345.121 830.034 345.871 830.398 346.545C830.769 347.22 831.273 347.754 831.909 348.148C832.553 348.542 833.288 348.739 834.114 348.739C834.727 348.739 835.299 348.621 835.83 348.386C836.36 348.152 836.822 347.826 837.216 347.409C837.617 346.985 837.928 346.504 838.148 345.966C838.375 345.428 838.485 344.86 838.477 344.261C838.477 343.466 838.288 342.731 837.909 342.057C837.538 341.383 837.027 340.841 836.375 340.432C835.731 340.023 834.992 339.818 834.159 339.818ZM854.898 336.409C856.011 336.417 857.095 336.614 858.148 337C859.208 337.379 860.163 338 861.011 338.864C861.86 339.72 862.534 340.867 863.034 342.307C863.534 343.746 863.784 345.527 863.784 347.648C863.792 349.648 863.58 351.436 863.148 353.011C862.723 354.58 862.114 355.905 861.318 356.989C860.523 358.072 859.564 358.898 858.443 359.466C857.322 360.034 856.061 360.318 854.659 360.318C853.189 360.318 851.886 360.03 850.75 359.455C849.621 358.879 848.708 358.091 848.011 357.091C847.314 356.091 846.886 354.947 846.727 353.659H850.875C851.087 354.583 851.519 355.318 852.17 355.864C852.83 356.402 853.659 356.67 854.659 356.67C856.273 356.67 857.515 355.97 858.386 354.568C859.258 353.167 859.693 351.22 859.693 348.727H859.534C859.163 349.394 858.682 349.97 858.091 350.455C857.5 350.932 856.83 351.299 856.08 351.557C855.337 351.814 854.549 351.943 853.716 351.943C852.352 351.943 851.125 351.617 850.034 350.966C848.951 350.314 848.091 349.42 847.455 348.284C846.826 347.148 846.508 345.848 846.5 344.386C846.5 342.871 846.848 341.511 847.545 340.307C848.25 339.095 849.231 338.14 850.489 337.443C851.746 336.739 853.216 336.394 854.898 336.409ZM854.909 339.818C854.091 339.818 853.352 340.019 852.693 340.42C852.042 340.814 851.527 341.352 851.148 342.034C850.777 342.708 850.591 343.462 850.591 344.295C850.598 345.121 850.784 345.871 851.148 346.545C851.519 347.22 852.023 347.754 852.659 348.148C853.303 348.542 854.038 348.739 854.864 348.739C855.477 348.739 856.049 348.621 856.58 348.386C857.11 348.152 857.572 347.826 857.966 347.409C858.367 346.985 858.678 346.504 858.898 345.966C859.125 345.428 859.235 344.86 859.227 344.261C859.227 343.466 859.038 342.731 858.659 342.057C858.288 341.383 857.777 340.841 857.125 340.432C856.481 340.023 855.742 339.818 854.909 339.818ZM880.011 355.636V354.409C880.011 353.508 880.201 352.678 880.58 351.92C880.966 351.163 881.527 350.553 882.261 350.091C882.996 349.629 883.886 349.398 884.932 349.398C886.008 349.398 886.909 349.629 887.636 350.091C888.364 350.545 888.913 351.152 889.284 351.909C889.663 352.667 889.852 353.5 889.852 354.409V355.636C889.852 356.538 889.663 357.367 889.284 358.125C888.905 358.883 888.348 359.492 887.614 359.955C886.886 360.417 885.992 360.648 884.932 360.648C883.871 360.648 882.973 360.417 882.239 359.955C881.504 359.492 880.947 358.883 880.568 358.125C880.197 357.367 880.011 356.538 880.011 355.636ZM882.977 354.409V355.636C882.977 356.235 883.121 356.784 883.409 357.284C883.697 357.784 884.205 358.034 884.932 358.034C885.667 358.034 886.17 357.788 886.443 357.295C886.723 356.795 886.864 356.242 886.864 355.636V354.409C886.864 353.803 886.731 353.25 886.466 352.75C886.201 352.242 885.689 351.989 884.932 351.989C884.22 351.989 883.716 352.242 883.42 352.75C883.125 353.25 882.977 353.803 882.977 354.409ZM868.182 342.318V341.091C868.182 340.182 868.375 339.348 868.761 338.591C869.148 337.833 869.708 337.227 870.443 336.773C871.178 336.311 872.068 336.08 873.114 336.08C874.182 336.08 875.08 336.311 875.807 336.773C876.542 337.227 877.095 337.833 877.466 338.591C877.837 339.348 878.023 340.182 878.023 341.091V342.318C878.023 343.227 877.833 344.061 877.455 344.818C877.083 345.568 876.53 346.17 875.795 346.625C875.061 347.08 874.167 347.307 873.114 347.307C872.045 347.307 871.144 347.08 870.409 346.625C869.682 346.17 869.129 345.564 868.75 344.807C868.371 344.049 868.182 343.22 868.182 342.318ZM871.17 341.091V342.318C871.17 342.924 871.311 343.477 871.591 343.977C871.879 344.47 872.386 344.716 873.114 344.716C873.841 344.716 874.341 344.47 874.614 343.977C874.894 343.477 875.034 342.924 875.034 342.318V341.091C875.034 340.485 874.902 339.932 874.636 339.432C874.371 338.924 873.864 338.67 873.114 338.67C872.394 338.67 871.89 338.924 871.602 339.432C871.314 339.939 871.17 340.492 871.17 341.091ZM869.477 360L885.477 336.727H888.318L872.318 360H869.477Z" fill="#00CB40"/>
<rect x="99" y="179" width="337" height="13" rx="6.5" fill="#909090"/>
<rect x="99" y="179" width="121" height="13" rx="6.5" fill="#E99F00"/>
<rect x="555" y="179" width="337" height="13" rx="6.5" fill="#909090"/>
<rect x="555" y="179" width="249" height="13" rx="6.5" fill="#00CB40"/>
<rect x="555" y="392" width="337" height="13" rx="6.5" fill="#909090"/>
<rect x="555" y="392" width="325" height="13" rx="6.5" fill="#00CB40"/>
<rect x="99" y="392" width="337" height="13" rx="6.5" fill="#909090"/>
<rect x="99" y="392" width="53" height="13" rx="6.5" fill="#CB0000"/>
</svg>
