<svg width="673" height="1288" viewBox="0 0 673 1288" fill="none" xmlns="http://www.w3.org/2000/svg">
<rect x="11.5" y="11.5" width="650" height="1265" rx="108.5" fill="#696969" stroke="white" stroke-width="23"/>
<path d="M662 257C662 250.925 666.925 246 673 246V246V330V330C666.925 330 662 325.075 662 319V257Z" fill="#767676"/>
<path d="M0 246V246C6.07513 246 11 250.925 11 257V319C11 325.075 6.07513 330 0 330V330V246Z" fill="#767676"/>
<path d="M0 377V377C6.07513 377 11 381.925 11 388V451C11 457.075 6.07513 462 0 462V462V377Z" fill="#767676"/>
<rect x="236" y="66" width="202" height="48" rx="24" fill="black"/>
<circle cx="258.5" cy="89.5" r="12.5" fill="#D9D9D9"/>
<path d="M63 801C63 781.67 78.67 766 98 766H569C588.33 766 604 781.67 604 801V863C604 882.33 588.33 898 569 898H98C78.67 898 63 882.33 63 863V801Z" fill="#E9E9E9"/>
<path d="M537.08 798.432V806H533.449V792.909H536.909V795.219H537.062C537.352 794.457 537.838 793.855 538.52 793.412C539.202 792.963 540.028 792.739 541 792.739C541.909 792.739 542.702 792.938 543.378 793.335C544.054 793.733 544.58 794.301 544.955 795.04C545.33 795.773 545.517 796.648 545.517 797.665V806H541.886V798.312C541.892 797.511 541.688 796.886 541.273 796.438C540.858 795.983 540.287 795.756 539.56 795.756C539.071 795.756 538.639 795.861 538.264 796.071C537.895 796.281 537.605 796.588 537.395 796.991C537.19 797.389 537.085 797.869 537.08 798.432ZM554.293 806.256C552.969 806.256 551.825 805.974 550.859 805.412C549.898 804.844 549.157 804.054 548.634 803.043C548.112 802.026 547.85 800.847 547.85 799.506C547.85 798.153 548.112 796.972 548.634 795.96C549.157 794.943 549.898 794.153 550.859 793.591C551.825 793.023 552.969 792.739 554.293 792.739C555.617 792.739 556.759 793.023 557.719 793.591C558.685 794.153 559.43 794.943 559.952 795.96C560.475 796.972 560.737 798.153 560.737 799.506C560.737 800.847 560.475 802.026 559.952 803.043C559.43 804.054 558.685 804.844 557.719 805.412C556.759 805.974 555.617 806.256 554.293 806.256ZM554.31 803.443C554.913 803.443 555.415 803.273 555.819 802.932C556.222 802.585 556.526 802.114 556.731 801.517C556.941 800.92 557.046 800.241 557.046 799.48C557.046 798.719 556.941 798.04 556.731 797.443C556.526 796.847 556.222 796.375 555.819 796.028C555.415 795.682 554.913 795.509 554.31 795.509C553.702 795.509 553.191 795.682 552.776 796.028C552.367 796.375 552.058 796.847 551.847 797.443C551.643 798.04 551.54 798.719 551.54 799.48C551.54 800.241 551.643 800.92 551.847 801.517C552.058 802.114 552.367 802.585 552.776 802.932C553.191 803.273 553.702 803.443 554.31 803.443ZM565.352 806L561.789 792.909H565.462L567.491 801.705H567.61L569.724 792.909H573.329L575.477 801.653H575.587L577.582 792.909H581.246L577.692 806H573.849L571.599 797.767H571.437L569.187 806H565.352Z" fill="black" fill-opacity="0.35"/>
<path d="M189.918 794.656H186.185C186.116 794.173 185.977 793.744 185.767 793.369C185.557 792.989 185.287 792.665 184.957 792.398C184.628 792.131 184.247 791.926 183.815 791.784C183.389 791.642 182.926 791.571 182.426 791.571C181.523 791.571 180.736 791.795 180.065 792.244C179.395 792.687 178.875 793.335 178.506 794.188C178.136 795.034 177.952 796.062 177.952 797.273C177.952 798.517 178.136 799.562 178.506 800.409C178.881 801.256 179.403 801.895 180.074 802.327C180.744 802.759 181.52 802.974 182.401 802.974C182.895 802.974 183.352 802.909 183.773 802.778C184.199 802.648 184.577 802.457 184.906 802.207C185.236 801.952 185.509 801.642 185.724 801.278C185.946 800.915 186.099 800.5 186.185 800.034L189.918 800.051C189.821 800.852 189.58 801.625 189.193 802.369C188.813 803.108 188.298 803.77 187.651 804.355C187.009 804.935 186.241 805.395 185.349 805.736C184.463 806.071 183.46 806.239 182.341 806.239C180.784 806.239 179.392 805.886 178.165 805.182C176.943 804.477 175.977 803.457 175.267 802.122C174.562 800.787 174.21 799.17 174.21 797.273C174.21 795.369 174.568 793.75 175.284 792.415C176 791.08 176.972 790.062 178.199 789.364C179.426 788.659 180.807 788.307 182.341 788.307C183.352 788.307 184.29 788.449 185.153 788.733C186.023 789.017 186.793 789.432 187.463 789.977C188.134 790.517 188.679 791.179 189.099 791.963C189.526 792.747 189.798 793.645 189.918 794.656ZM196.126 798.432V806H192.496V788.545H196.024V795.219H196.178C196.473 794.446 196.95 793.841 197.609 793.403C198.268 792.96 199.095 792.739 200.089 792.739C200.999 792.739 201.791 792.938 202.467 793.335C203.149 793.727 203.678 794.293 204.053 795.031C204.433 795.764 204.621 796.642 204.615 797.665V806H200.984V798.312C200.99 797.506 200.786 796.878 200.371 796.429C199.962 795.98 199.388 795.756 198.649 795.756C198.155 795.756 197.717 795.861 197.337 796.071C196.962 796.281 196.666 796.588 196.45 796.991C196.24 797.389 196.132 797.869 196.126 798.432ZM211.205 806.247C210.37 806.247 209.626 806.102 208.972 805.812C208.319 805.517 207.802 805.082 207.421 804.509C207.046 803.929 206.859 803.207 206.859 802.344C206.859 801.616 206.992 801.006 207.259 800.511C207.526 800.017 207.89 799.619 208.35 799.318C208.81 799.017 209.333 798.79 209.918 798.636C210.509 798.483 211.129 798.375 211.776 798.312C212.538 798.233 213.151 798.159 213.617 798.091C214.083 798.017 214.421 797.909 214.631 797.767C214.842 797.625 214.947 797.415 214.947 797.136V797.085C214.947 796.545 214.776 796.128 214.435 795.832C214.1 795.537 213.623 795.389 213.004 795.389C212.35 795.389 211.83 795.534 211.444 795.824C211.058 796.108 210.802 796.466 210.677 796.898L207.319 796.625C207.489 795.83 207.825 795.142 208.325 794.562C208.825 793.977 209.469 793.528 210.259 793.216C211.055 792.898 211.975 792.739 213.021 792.739C213.748 792.739 214.444 792.824 215.109 792.994C215.779 793.165 216.373 793.429 216.89 793.787C217.413 794.145 217.825 794.605 218.126 795.168C218.427 795.724 218.577 796.392 218.577 797.17V806H215.134V804.185H215.032C214.822 804.594 214.54 804.955 214.188 805.267C213.836 805.574 213.413 805.815 212.918 805.991C212.424 806.162 211.853 806.247 211.205 806.247ZM212.245 803.741C212.779 803.741 213.251 803.636 213.66 803.426C214.069 803.21 214.39 802.92 214.623 802.557C214.856 802.193 214.972 801.781 214.972 801.321V799.932C214.859 800.006 214.702 800.074 214.504 800.136C214.31 800.193 214.092 800.247 213.847 800.298C213.603 800.344 213.359 800.386 213.114 800.426C212.87 800.46 212.648 800.491 212.45 800.52C212.023 800.582 211.651 800.682 211.333 800.818C211.015 800.955 210.768 801.139 210.592 801.372C210.415 801.599 210.327 801.884 210.327 802.224C210.327 802.719 210.506 803.097 210.864 803.358C211.228 803.614 211.688 803.741 212.245 803.741ZM221.394 806V792.909H224.914V795.193H225.05C225.289 794.381 225.69 793.767 226.252 793.352C226.815 792.932 227.462 792.722 228.195 792.722C228.377 792.722 228.573 792.733 228.783 792.756C228.994 792.778 229.178 792.81 229.337 792.849V796.071C229.167 796.02 228.931 795.974 228.63 795.935C228.329 795.895 228.053 795.875 227.803 795.875C227.269 795.875 226.792 795.991 226.371 796.224C225.957 796.452 225.627 796.77 225.383 797.179C225.144 797.588 225.025 798.06 225.025 798.594V806H221.394ZM236.503 811.182C235.327 811.182 234.318 811.02 233.477 810.696C232.642 810.378 231.977 809.943 231.483 809.392C230.989 808.841 230.668 808.222 230.52 807.534L233.878 807.082C233.98 807.344 234.142 807.588 234.364 807.815C234.585 808.043 234.878 808.224 235.241 808.361C235.611 808.503 236.06 808.574 236.588 808.574C237.378 808.574 238.028 808.381 238.54 807.994C239.057 807.614 239.315 806.974 239.315 806.077V803.682H239.162C239.003 804.045 238.764 804.389 238.446 804.713C238.128 805.037 237.719 805.301 237.219 805.506C236.719 805.71 236.122 805.812 235.429 805.812C234.446 805.812 233.551 805.585 232.744 805.131C231.943 804.67 231.304 803.969 230.827 803.026C230.355 802.077 230.119 800.878 230.119 799.429C230.119 797.946 230.361 796.707 230.844 795.713C231.327 794.719 231.969 793.974 232.77 793.48C233.577 792.986 234.46 792.739 235.42 792.739C236.153 792.739 236.767 792.864 237.261 793.114C237.756 793.358 238.153 793.665 238.455 794.034C238.761 794.398 238.997 794.756 239.162 795.108H239.298V792.909H242.903V806.128C242.903 807.241 242.631 808.173 242.085 808.923C241.54 809.673 240.784 810.236 239.818 810.611C238.858 810.991 237.753 811.182 236.503 811.182ZM236.58 803.085C237.165 803.085 237.659 802.94 238.062 802.651C238.472 802.355 238.784 801.935 239 801.389C239.222 800.838 239.332 800.179 239.332 799.412C239.332 798.645 239.224 797.98 239.009 797.418C238.793 796.849 238.48 796.409 238.071 796.097C237.662 795.784 237.165 795.628 236.58 795.628C235.983 795.628 235.48 795.79 235.071 796.114C234.662 796.432 234.352 796.875 234.142 797.443C233.932 798.011 233.827 798.668 233.827 799.412C233.827 800.168 233.932 800.821 234.142 801.372C234.358 801.918 234.668 802.341 235.071 802.642C235.48 802.937 235.983 803.085 236.58 803.085ZM251.759 806.256C250.412 806.256 249.253 805.983 248.281 805.438C247.315 804.886 246.571 804.108 246.048 803.102C245.526 802.091 245.264 800.895 245.264 799.514C245.264 798.168 245.526 796.986 246.048 795.969C246.571 794.952 247.307 794.159 248.256 793.591C249.21 793.023 250.33 792.739 251.614 792.739C252.477 792.739 253.281 792.878 254.026 793.156C254.776 793.429 255.429 793.841 255.986 794.392C256.548 794.943 256.986 795.636 257.298 796.472C257.611 797.301 257.767 798.273 257.767 799.386V800.384H246.713V798.134H254.349C254.349 797.611 254.236 797.148 254.009 796.744C253.781 796.341 253.466 796.026 253.062 795.798C252.665 795.565 252.202 795.449 251.673 795.449C251.122 795.449 250.634 795.577 250.207 795.832C249.787 796.082 249.457 796.42 249.219 796.847C248.98 797.267 248.858 797.736 248.852 798.253V800.392C248.852 801.04 248.972 801.599 249.21 802.071C249.455 802.543 249.798 802.906 250.241 803.162C250.685 803.418 251.21 803.545 251.818 803.545C252.222 803.545 252.591 803.489 252.926 803.375C253.261 803.261 253.548 803.091 253.787 802.864C254.026 802.636 254.207 802.358 254.332 802.028L257.69 802.25C257.52 803.057 257.17 803.761 256.642 804.364C256.119 804.96 255.443 805.426 254.614 805.761C253.79 806.091 252.838 806.256 251.759 806.256ZM264.737 788.545H268.87L272.85 796.062H273.021L277.001 788.545H281.134L274.768 799.83V806H271.103V799.83L264.737 788.545ZM286.254 806.256C284.93 806.256 283.786 805.974 282.82 805.412C281.859 804.844 281.118 804.054 280.595 803.043C280.072 802.026 279.811 800.847 279.811 799.506C279.811 798.153 280.072 796.972 280.595 795.96C281.118 794.943 281.859 794.153 282.82 793.591C283.786 793.023 284.93 792.739 286.254 792.739C287.578 792.739 288.72 793.023 289.68 793.591C290.646 794.153 291.391 794.943 291.913 795.96C292.436 796.972 292.697 798.153 292.697 799.506C292.697 800.847 292.436 802.026 291.913 803.043C291.391 804.054 290.646 804.844 289.68 805.412C288.72 805.974 287.578 806.256 286.254 806.256ZM286.271 803.443C286.874 803.443 287.376 803.273 287.78 802.932C288.183 802.585 288.487 802.114 288.692 801.517C288.902 800.92 289.007 800.241 289.007 799.48C289.007 798.719 288.902 798.04 288.692 797.443C288.487 796.847 288.183 796.375 287.78 796.028C287.376 795.682 286.874 795.509 286.271 795.509C285.663 795.509 285.152 795.682 284.737 796.028C284.328 796.375 284.018 796.847 283.808 797.443C283.604 798.04 283.501 798.719 283.501 799.48C283.501 800.241 283.604 800.92 283.808 801.517C284.018 802.114 284.328 802.585 284.737 802.932C285.152 803.273 285.663 803.443 286.271 803.443ZM303.453 800.426V792.909H307.084V806H303.598V803.622H303.462C303.166 804.389 302.675 805.006 301.987 805.472C301.305 805.937 300.473 806.17 299.49 806.17C298.615 806.17 297.845 805.972 297.18 805.574C296.516 805.176 295.996 804.611 295.621 803.878C295.251 803.145 295.064 802.267 295.058 801.244V792.909H298.689V800.597C298.695 801.369 298.902 801.98 299.311 802.429C299.72 802.878 300.268 803.102 300.956 803.102C301.393 803.102 301.803 803.003 302.183 802.804C302.564 802.599 302.871 802.298 303.104 801.901C303.342 801.503 303.459 801.011 303.453 800.426ZM309.988 806V792.909H313.508V795.193H313.644C313.883 794.381 314.283 793.767 314.846 793.352C315.408 792.932 316.056 792.722 316.789 792.722C316.971 792.722 317.167 792.733 317.377 792.756C317.587 792.778 317.772 792.81 317.931 792.849V796.071C317.761 796.02 317.525 795.974 317.224 795.935C316.923 795.895 316.647 795.875 316.397 795.875C315.863 795.875 315.386 795.991 314.965 796.224C314.55 796.452 314.221 796.77 313.977 797.179C313.738 797.588 313.619 798.06 313.619 798.594V806H309.988ZM325.431 788.545H329.982L334.789 800.273H334.994L339.8 788.545H344.352V806H340.772V794.639H340.627L336.11 805.915H333.673L329.156 794.597H329.011V806H325.431V788.545ZM351.057 806.247C350.222 806.247 349.477 806.102 348.824 805.812C348.17 805.517 347.653 805.082 347.273 804.509C346.898 803.929 346.71 803.207 346.71 802.344C346.71 801.616 346.844 801.006 347.111 800.511C347.378 800.017 347.741 799.619 348.202 799.318C348.662 799.017 349.185 798.79 349.77 798.636C350.361 798.483 350.98 798.375 351.628 798.312C352.389 798.233 353.003 798.159 353.469 798.091C353.935 798.017 354.273 797.909 354.483 797.767C354.693 797.625 354.798 797.415 354.798 797.136V797.085C354.798 796.545 354.628 796.128 354.287 795.832C353.952 795.537 353.474 795.389 352.855 795.389C352.202 795.389 351.682 795.534 351.295 795.824C350.909 796.108 350.653 796.466 350.528 796.898L347.17 796.625C347.341 795.83 347.676 795.142 348.176 794.562C348.676 793.977 349.321 793.528 350.111 793.216C350.906 792.898 351.827 792.739 352.872 792.739C353.599 792.739 354.295 792.824 354.96 792.994C355.631 793.165 356.224 793.429 356.741 793.787C357.264 794.145 357.676 794.605 357.977 795.168C358.278 795.724 358.429 796.392 358.429 797.17V806H354.986V804.185H354.884C354.673 804.594 354.392 804.955 354.04 805.267C353.688 805.574 353.264 805.815 352.77 805.991C352.276 806.162 351.705 806.247 351.057 806.247ZM352.097 803.741C352.631 803.741 353.102 803.636 353.511 803.426C353.92 803.21 354.241 802.92 354.474 802.557C354.707 802.193 354.824 801.781 354.824 801.321V799.932C354.71 800.006 354.554 800.074 354.355 800.136C354.162 800.193 353.943 800.247 353.699 800.298C353.455 800.344 353.21 800.386 352.966 800.426C352.722 800.46 352.5 800.491 352.301 800.52C351.875 800.582 351.503 800.682 351.185 800.818C350.866 800.955 350.619 801.139 350.443 801.372C350.267 801.599 350.179 801.884 350.179 802.224C350.179 802.719 350.358 803.097 350.716 803.358C351.08 803.614 351.54 803.741 352.097 803.741ZM367.161 806.256C365.82 806.256 364.666 805.972 363.7 805.403C362.74 804.83 362.001 804.034 361.484 803.017C360.973 802 360.717 800.83 360.717 799.506C360.717 798.165 360.976 796.989 361.493 795.977C362.016 794.96 362.757 794.168 363.717 793.599C364.678 793.026 365.82 792.739 367.143 792.739C368.286 792.739 369.286 792.946 370.143 793.361C371.001 793.776 371.68 794.358 372.18 795.108C372.68 795.858 372.956 796.739 373.007 797.75H369.581C369.484 797.097 369.229 796.571 368.814 796.173C368.405 795.77 367.868 795.568 367.203 795.568C366.641 795.568 366.149 795.722 365.729 796.028C365.314 796.33 364.99 796.77 364.757 797.349C364.524 797.929 364.408 798.631 364.408 799.455C364.408 800.29 364.521 801 364.749 801.585C364.982 802.17 365.308 802.616 365.729 802.923C366.149 803.23 366.641 803.384 367.203 803.384C367.618 803.384 367.99 803.298 368.32 803.128C368.655 802.957 368.93 802.71 369.146 802.386C369.368 802.057 369.513 801.662 369.581 801.202H373.007C372.95 802.202 372.678 803.082 372.189 803.844C371.706 804.599 371.038 805.19 370.186 805.616C369.334 806.043 368.325 806.256 367.161 806.256ZM375.4 806V788.545H382.388C383.673 788.545 384.744 788.736 385.602 789.116C386.46 789.497 387.104 790.026 387.536 790.702C387.968 791.372 388.184 792.145 388.184 793.02C388.184 793.702 388.048 794.301 387.775 794.818C387.502 795.33 387.127 795.75 386.65 796.08C386.178 796.403 385.638 796.634 385.031 796.77V796.94C385.695 796.969 386.317 797.156 386.897 797.503C387.482 797.849 387.957 798.335 388.32 798.96C388.684 799.58 388.866 800.318 388.866 801.176C388.866 802.102 388.636 802.929 388.175 803.656C387.721 804.378 387.048 804.949 386.156 805.369C385.263 805.79 384.164 806 382.857 806H375.4ZM379.09 802.983H382.099C383.127 802.983 383.877 802.787 384.349 802.395C384.82 801.997 385.056 801.469 385.056 800.81C385.056 800.327 384.94 799.901 384.707 799.531C384.474 799.162 384.141 798.872 383.71 798.662C383.283 798.452 382.775 798.347 382.184 798.347H379.09V802.983ZM379.09 795.849H381.826C382.332 795.849 382.781 795.761 383.173 795.585C383.57 795.403 383.883 795.148 384.11 794.818C384.343 794.489 384.46 794.094 384.46 793.634C384.46 793.003 384.235 792.494 383.786 792.108C383.343 791.722 382.712 791.528 381.894 791.528H379.09V795.849ZM397.114 806.256C395.79 806.256 394.645 805.974 393.679 805.412C392.719 804.844 391.977 804.054 391.455 803.043C390.932 802.026 390.67 800.847 390.67 799.506C390.67 798.153 390.932 796.972 391.455 795.96C391.977 794.943 392.719 794.153 393.679 793.591C394.645 793.023 395.79 792.739 397.114 792.739C398.438 792.739 399.58 793.023 400.54 793.591C401.506 794.153 402.25 794.943 402.773 795.96C403.295 796.972 403.557 798.153 403.557 799.506C403.557 800.847 403.295 802.026 402.773 803.043C402.25 804.054 401.506 804.844 400.54 805.412C399.58 805.974 398.438 806.256 397.114 806.256ZM397.131 803.443C397.733 803.443 398.236 803.273 398.639 802.932C399.043 802.585 399.347 802.114 399.551 801.517C399.761 800.92 399.866 800.241 399.866 799.48C399.866 798.719 399.761 798.04 399.551 797.443C399.347 796.847 399.043 796.375 398.639 796.028C398.236 795.682 397.733 795.509 397.131 795.509C396.523 795.509 396.011 795.682 395.597 796.028C395.188 796.375 394.878 796.847 394.668 797.443C394.463 798.04 394.361 798.719 394.361 799.48C394.361 800.241 394.463 800.92 394.668 801.517C394.878 802.114 395.188 802.585 395.597 802.932C396.011 803.273 396.523 803.443 397.131 803.443ZM411.832 806.256C410.509 806.256 409.364 805.974 408.398 805.412C407.438 804.844 406.696 804.054 406.173 803.043C405.651 802.026 405.389 800.847 405.389 799.506C405.389 798.153 405.651 796.972 406.173 795.96C406.696 794.943 407.438 794.153 408.398 793.591C409.364 793.023 410.509 792.739 411.832 792.739C413.156 792.739 414.298 793.023 415.259 793.591C416.224 794.153 416.969 794.943 417.491 795.96C418.014 796.972 418.276 798.153 418.276 799.506C418.276 800.847 418.014 802.026 417.491 803.043C416.969 804.054 416.224 804.844 415.259 805.412C414.298 805.974 413.156 806.256 411.832 806.256ZM411.849 803.443C412.452 803.443 412.955 803.273 413.358 802.932C413.761 802.585 414.065 802.114 414.27 801.517C414.48 800.92 414.585 800.241 414.585 799.48C414.585 798.719 414.48 798.04 414.27 797.443C414.065 796.847 413.761 796.375 413.358 796.028C412.955 795.682 412.452 795.509 411.849 795.509C411.241 795.509 410.73 795.682 410.315 796.028C409.906 796.375 409.597 796.847 409.386 797.443C409.182 798.04 409.08 798.719 409.08 799.48C409.08 800.241 409.182 800.92 409.386 801.517C409.597 802.114 409.906 802.585 410.315 802.932C410.73 803.273 411.241 803.443 411.849 803.443ZM423.926 802.233L423.935 797.878H424.463L428.656 792.909H432.824L427.19 799.489H426.33L423.926 802.233ZM420.636 806V788.545H424.267V806H420.636ZM428.818 806L424.966 800.298L427.386 797.733L433.071 806H428.818ZM440.228 806V788.545H447.114C448.438 788.545 449.566 788.798 450.498 789.304C451.43 789.804 452.14 790.5 452.629 791.392C453.123 792.278 453.37 793.301 453.37 794.46C453.37 795.619 453.12 796.642 452.62 797.528C452.12 798.415 451.396 799.105 450.447 799.599C449.504 800.094 448.362 800.341 447.021 800.341H442.631V797.384H446.424C447.134 797.384 447.719 797.261 448.18 797.017C448.646 796.767 448.992 796.423 449.219 795.986C449.452 795.543 449.569 795.034 449.569 794.46C449.569 793.881 449.452 793.375 449.219 792.943C448.992 792.506 448.646 792.168 448.18 791.929C447.714 791.685 447.123 791.562 446.407 791.562H443.918V806H440.228ZM455.699 806V792.909H459.219V795.193H459.355C459.594 794.381 459.994 793.767 460.557 793.352C461.119 792.932 461.767 792.722 462.5 792.722C462.682 792.722 462.878 792.733 463.088 792.756C463.298 792.778 463.483 792.81 463.642 792.849V796.071C463.472 796.02 463.236 795.974 462.935 795.935C462.634 795.895 462.358 795.875 462.108 795.875C461.574 795.875 461.097 795.991 460.676 796.224C460.261 796.452 459.932 796.77 459.688 797.179C459.449 797.588 459.33 798.06 459.33 798.594V806H455.699ZM470.825 806.256C469.501 806.256 468.356 805.974 467.39 805.412C466.43 804.844 465.688 804.054 465.165 803.043C464.643 802.026 464.381 800.847 464.381 799.506C464.381 798.153 464.643 796.972 465.165 795.96C465.688 794.943 466.43 794.153 467.39 793.591C468.356 793.023 469.501 792.739 470.825 792.739C472.148 792.739 473.29 793.023 474.251 793.591C475.217 794.153 475.961 794.943 476.484 795.96C477.006 796.972 477.268 798.153 477.268 799.506C477.268 800.847 477.006 802.026 476.484 803.043C475.961 804.054 475.217 804.844 474.251 805.412C473.29 805.974 472.148 806.256 470.825 806.256ZM470.842 803.443C471.444 803.443 471.947 803.273 472.35 802.932C472.754 802.585 473.058 802.114 473.262 801.517C473.472 800.92 473.577 800.241 473.577 799.48C473.577 798.719 473.472 798.04 473.262 797.443C473.058 796.847 472.754 796.375 472.35 796.028C471.947 795.682 471.444 795.509 470.842 795.509C470.234 795.509 469.722 795.682 469.308 796.028C468.898 796.375 468.589 796.847 468.379 797.443C468.174 798.04 468.072 798.719 468.072 799.48C468.072 800.241 468.174 800.92 468.379 801.517C468.589 802.114 468.898 802.585 469.308 802.932C469.722 803.273 470.234 803.443 470.842 803.443Z" fill="black"/>
<path d="M173.661 818.508V817.091H182.103V818.508H178.7V828H177.059V818.508H173.661ZM185.434 823.142V828H183.841V817.091H185.413V821.15H185.514C185.706 820.71 185.998 820.36 186.393 820.1C186.787 819.841 187.302 819.712 187.937 819.712C188.498 819.712 188.989 819.827 189.408 820.058C189.83 820.289 190.157 820.633 190.388 821.091C190.622 821.546 190.739 822.114 190.739 822.796V828H189.147V822.988C189.147 822.387 188.992 821.922 188.683 821.592C188.374 821.258 187.945 821.091 187.394 821.091C187.018 821.091 186.68 821.171 186.382 821.331C186.087 821.491 185.855 821.725 185.684 822.034C185.517 822.339 185.434 822.709 185.434 823.142ZM196.391 828.165C195.585 828.165 194.891 827.993 194.308 827.648C193.729 827.3 193.282 826.812 192.966 826.184C192.653 825.551 192.497 824.811 192.497 823.962C192.497 823.124 192.653 822.386 192.966 821.746C193.282 821.107 193.722 820.608 194.287 820.25C194.855 819.891 195.519 819.712 196.279 819.712C196.741 819.712 197.188 819.788 197.621 819.941C198.055 820.093 198.443 820.333 198.788 820.66C199.132 820.987 199.404 821.411 199.603 821.933C199.802 822.451 199.901 823.082 199.901 823.824V824.388H193.397V823.195H198.34C198.34 822.776 198.255 822.405 198.085 822.082C197.914 821.755 197.675 821.498 197.366 821.31C197.06 821.121 196.702 821.027 196.29 821.027C195.842 821.027 195.452 821.137 195.118 821.358C194.788 821.574 194.532 821.858 194.351 822.21C194.173 822.558 194.084 822.936 194.084 823.344V824.277C194.084 824.824 194.18 825.289 194.372 825.672C194.567 826.056 194.839 826.349 195.187 826.551C195.535 826.75 195.942 826.849 196.407 826.849C196.709 826.849 196.984 826.807 197.233 826.722C197.481 826.633 197.696 826.501 197.877 826.327C198.058 826.153 198.197 825.939 198.293 825.683L199.8 825.955C199.679 826.398 199.463 826.787 199.15 827.121C198.841 827.451 198.452 827.709 197.984 827.893C197.518 828.075 196.987 828.165 196.391 828.165ZM209.297 828H205.766V817.091H209.409C210.478 817.091 211.396 817.309 212.163 817.746C212.93 818.179 213.518 818.803 213.926 819.616C214.338 820.425 214.544 821.397 214.544 822.529C214.544 823.666 214.337 824.642 213.921 825.459C213.509 826.276 212.913 826.904 212.131 827.345C211.35 827.782 210.405 828 209.297 828ZM207.412 826.562H209.207C210.038 826.562 210.729 826.406 211.279 826.093C211.829 825.777 212.241 825.321 212.515 824.724C212.788 824.124 212.925 823.392 212.925 822.529C212.925 821.674 212.788 820.947 212.515 820.351C212.245 819.754 211.842 819.301 211.306 818.993C210.769 818.684 210.104 818.529 209.308 818.529H207.412V826.562ZM219.99 828.165C219.183 828.165 218.489 827.993 217.907 827.648C217.328 827.3 216.881 826.812 216.564 826.184C216.252 825.551 216.096 824.811 216.096 823.962C216.096 823.124 216.252 822.386 216.564 821.746C216.881 821.107 217.321 820.608 217.885 820.25C218.454 819.891 219.118 819.712 219.878 819.712C220.339 819.712 220.787 819.788 221.22 819.941C221.653 820.093 222.042 820.333 222.387 820.66C222.731 820.987 223.003 821.411 223.202 821.933C223.4 822.451 223.5 823.082 223.5 823.824V824.388H216.996V823.195H221.939C221.939 822.776 221.854 822.405 221.683 822.082C221.513 821.755 221.273 821.498 220.964 821.31C220.659 821.121 220.3 821.027 219.888 821.027C219.441 821.027 219.05 821.137 218.716 821.358C218.386 821.574 218.131 821.858 217.949 822.21C217.772 822.558 217.683 822.936 217.683 823.344V824.277C217.683 824.824 217.779 825.289 217.971 825.672C218.166 826.056 218.438 826.349 218.786 826.551C219.134 826.75 219.54 826.849 220.006 826.849C220.307 826.849 220.583 826.807 220.831 826.722C221.08 826.633 221.295 826.501 221.476 826.327C221.657 826.153 221.795 825.939 221.891 825.683L223.399 825.955C223.278 826.398 223.061 826.787 222.749 827.121C222.44 827.451 222.051 827.709 221.582 827.893C221.117 828.075 220.586 828.165 219.99 828.165ZM232.032 819.818L229.065 828H227.36L224.388 819.818H226.098L228.17 826.114H228.255L230.322 819.818H232.032ZM233.529 828V819.818H235.121V828H233.529ZM234.333 818.556C234.056 818.556 233.818 818.463 233.619 818.279C233.424 818.091 233.326 817.867 233.326 817.608C233.326 817.345 233.424 817.121 233.619 816.936C233.818 816.748 234.056 816.654 234.333 816.654C234.61 816.654 234.846 816.748 235.041 816.936C235.24 817.121 235.34 817.345 235.34 817.608C235.34 817.867 235.24 818.091 235.041 818.279C234.846 818.463 234.61 818.556 234.333 818.556ZM240.71 828.165C239.919 828.165 239.237 827.986 238.665 827.627C238.097 827.265 237.66 826.766 237.355 826.13C237.049 825.495 236.896 824.767 236.896 823.946C236.896 823.115 237.053 822.382 237.365 821.746C237.678 821.107 238.118 820.608 238.686 820.25C239.254 819.891 239.924 819.712 240.694 819.712C241.316 819.712 241.87 819.827 242.356 820.058C242.843 820.285 243.235 820.605 243.534 821.017C243.835 821.429 244.015 821.91 244.072 822.46H242.521C242.436 822.077 242.241 821.746 241.936 821.469C241.634 821.192 241.229 821.054 240.721 821.054C240.277 821.054 239.888 821.171 239.555 821.406C239.224 821.636 238.967 821.967 238.782 822.396C238.597 822.822 238.505 823.327 238.505 823.909C238.505 824.506 238.596 825.021 238.777 825.454C238.958 825.887 239.214 826.223 239.544 826.461C239.878 826.699 240.27 826.817 240.721 826.817C241.023 826.817 241.296 826.762 241.541 826.652C241.79 826.539 241.998 826.377 242.165 826.168C242.335 825.958 242.454 825.706 242.521 825.411H244.072C244.015 825.94 243.843 826.413 243.555 826.828C243.267 827.244 242.882 827.57 242.399 827.808C241.92 828.046 241.357 828.165 240.71 828.165ZM249.301 828.165C248.495 828.165 247.801 827.993 247.218 827.648C246.639 827.3 246.192 826.812 245.876 826.184C245.563 825.551 245.407 824.811 245.407 823.962C245.407 823.124 245.563 822.386 245.876 821.746C246.192 821.107 246.632 820.608 247.197 820.25C247.765 819.891 248.429 819.712 249.189 819.712C249.651 819.712 250.098 819.788 250.532 819.941C250.965 820.093 251.354 820.333 251.698 820.66C252.043 820.987 252.314 821.411 252.513 821.933C252.712 822.451 252.811 823.082 252.811 823.824V824.388H246.307V823.195H251.251C251.251 822.776 251.165 822.405 250.995 822.082C250.824 821.755 250.585 821.498 250.276 821.31C249.97 821.121 249.612 821.027 249.2 821.027C248.752 821.027 248.362 821.137 248.028 821.358C247.698 821.574 247.442 821.858 247.261 822.21C247.083 822.558 246.995 822.936 246.995 823.344V824.277C246.995 824.824 247.09 825.289 247.282 825.672C247.478 826.056 247.749 826.349 248.097 826.551C248.445 826.75 248.852 826.849 249.317 826.849C249.619 826.849 249.894 826.807 250.143 826.722C250.391 826.633 250.606 826.501 250.787 826.327C250.968 826.153 251.107 825.939 251.203 825.683L252.71 825.955C252.589 826.398 252.373 826.787 252.06 827.121C251.751 827.451 251.362 827.709 250.894 827.893C250.429 828.075 249.898 828.165 249.301 828.165ZM260.322 828L257.914 819.818H259.56L261.164 825.827H261.244L262.852 819.818H264.498L266.096 825.8H266.176L267.769 819.818H269.415L267.012 828H265.388L263.726 822.093H263.603L261.941 828H260.322ZM270.926 828V819.818H272.519V828H270.926ZM271.73 818.556C271.453 818.556 271.216 818.463 271.017 818.279C270.821 818.091 270.724 817.867 270.724 817.608C270.724 817.345 270.821 817.121 271.017 816.936C271.216 816.748 271.453 816.654 271.73 816.654C272.007 816.654 272.244 816.748 272.439 816.936C272.638 817.121 272.737 817.345 272.737 817.608C272.737 817.867 272.638 818.091 272.439 818.279C272.244 818.463 272.007 818.556 271.73 818.556ZM276.254 817.091V828H274.661V817.091H276.254ZM279.99 817.091V828H278.397V817.091H279.99ZM286.23 828V817.091H287.822V821.145H287.918C288.011 820.974 288.144 820.777 288.318 820.553C288.492 820.33 288.733 820.134 289.042 819.967C289.351 819.797 289.76 819.712 290.267 819.712C290.928 819.712 291.517 819.879 292.036 820.212C292.554 820.546 292.961 821.027 293.256 821.656C293.554 822.284 293.703 823.041 293.703 823.925C293.703 824.809 293.556 825.567 293.261 826.2C292.966 826.828 292.561 827.313 292.047 827.654C291.532 827.991 290.944 828.16 290.283 828.16C289.786 828.16 289.38 828.076 289.064 827.909C288.751 827.743 288.506 827.547 288.328 827.324C288.151 827.1 288.014 826.901 287.918 826.727H287.785V828H286.23ZM287.79 823.909C287.79 824.484 287.874 824.989 288.041 825.422C288.208 825.855 288.449 826.194 288.765 826.439C289.081 826.681 289.468 826.801 289.926 826.801C290.402 826.801 290.8 826.675 291.12 826.423C291.439 826.168 291.681 825.821 291.844 825.385C292.011 824.948 292.094 824.456 292.094 823.909C292.094 823.369 292.013 822.885 291.849 822.455C291.69 822.025 291.448 821.686 291.125 821.438C290.805 821.189 290.406 821.065 289.926 821.065C289.465 821.065 289.074 821.184 288.755 821.422C288.439 821.659 288.199 821.991 288.036 822.418C287.872 822.844 287.79 823.341 287.79 823.909ZM299.018 828.165C298.212 828.165 297.517 827.993 296.935 827.648C296.356 827.3 295.909 826.812 295.593 826.184C295.28 825.551 295.124 824.811 295.124 823.962C295.124 823.124 295.28 822.386 295.593 821.746C295.909 821.107 296.349 820.608 296.914 820.25C297.482 819.891 298.146 819.712 298.906 819.712C299.368 819.712 299.815 819.788 300.248 819.941C300.682 820.093 301.07 820.333 301.415 820.66C301.759 820.987 302.031 821.411 302.23 821.933C302.429 822.451 302.528 823.082 302.528 823.824V824.388H296.024V823.195H300.967C300.967 822.776 300.882 822.405 300.712 822.082C300.541 821.755 300.302 821.498 299.993 821.31C299.687 821.121 299.329 821.027 298.917 821.027C298.469 821.027 298.079 821.137 297.745 821.358C297.415 821.574 297.159 821.858 296.978 822.21C296.8 822.558 296.711 822.936 296.711 823.344V824.277C296.711 824.824 296.807 825.289 296.999 825.672C297.194 826.056 297.466 826.349 297.814 826.551C298.162 826.75 298.569 826.849 299.034 826.849C299.336 826.849 299.611 826.807 299.859 826.722C300.108 826.633 300.323 826.501 300.504 826.327C300.685 826.153 300.824 825.939 300.919 825.683L302.427 825.955C302.306 826.398 302.09 826.787 301.777 827.121C301.468 827.451 301.079 827.709 300.611 827.893C300.145 828.075 299.614 828.165 299.018 828.165ZM311.791 828.165C310.985 828.165 310.291 827.993 309.709 827.648C309.13 827.3 308.682 826.812 308.366 826.184C308.054 825.551 307.897 824.811 307.897 823.962C307.897 823.124 308.054 822.386 308.366 821.746C308.682 821.107 309.123 820.608 309.687 820.25C310.255 819.891 310.919 819.712 311.679 819.712C312.141 819.712 312.589 819.788 313.022 819.941C313.455 820.093 313.844 820.333 314.188 820.66C314.533 820.987 314.804 821.411 315.003 821.933C315.202 822.451 315.302 823.082 315.302 823.824V824.388H308.798V823.195H313.741C313.741 822.776 313.656 822.405 313.485 822.082C313.315 821.755 313.075 821.498 312.766 821.31C312.461 821.121 312.102 821.027 311.69 821.027C311.243 821.027 310.852 821.137 310.518 821.358C310.188 821.574 309.932 821.858 309.751 822.21C309.574 822.558 309.485 822.936 309.485 823.344V824.277C309.485 824.824 309.581 825.289 309.772 825.672C309.968 826.056 310.239 826.349 310.587 826.551C310.935 826.75 311.342 826.849 311.807 826.849C312.109 826.849 312.384 826.807 312.633 826.722C312.881 826.633 313.096 826.501 313.277 826.327C313.459 826.153 313.597 825.939 313.693 825.683L315.2 825.955C315.08 826.398 314.863 826.787 314.551 827.121C314.242 827.451 313.853 827.709 313.384 827.893C312.919 828.075 312.388 828.165 311.791 828.165ZM317.069 828V819.818H318.597V821.15H318.699C318.869 820.699 319.148 820.347 319.535 820.095C319.922 819.839 320.385 819.712 320.925 819.712C321.472 819.712 321.93 819.839 322.3 820.095C322.672 820.351 322.948 820.702 323.125 821.15H323.21C323.406 820.713 323.716 820.365 324.143 820.106C324.569 819.843 325.077 819.712 325.666 819.712C326.408 819.712 327.014 819.944 327.482 820.409C327.955 820.875 328.191 821.576 328.191 822.513V828H326.598V822.663C326.598 822.109 326.447 821.707 326.145 821.459C325.844 821.21 325.483 821.086 325.064 821.086C324.546 821.086 324.143 821.246 323.855 821.565C323.567 821.881 323.423 822.288 323.423 822.785V828H321.836V822.561C321.836 822.118 321.698 821.761 321.421 821.491C321.144 821.221 320.783 821.086 320.339 821.086C320.037 821.086 319.759 821.166 319.503 821.326C319.251 821.482 319.047 821.7 318.89 821.981C318.738 822.261 318.661 822.586 318.661 822.956V828H317.069ZM330.326 831.068V819.818H331.881V821.145H332.014C332.106 820.974 332.24 820.777 332.414 820.553C332.588 820.33 332.829 820.134 333.138 819.967C333.447 819.797 333.855 819.712 334.363 819.712C335.024 819.712 335.613 819.879 336.132 820.212C336.65 820.546 337.057 821.027 337.351 821.656C337.65 822.284 337.799 823.041 337.799 823.925C337.799 824.809 337.652 825.567 337.357 826.2C337.062 826.828 336.657 827.313 336.142 827.654C335.627 827.991 335.04 828.16 334.379 828.16C333.882 828.16 333.475 828.076 333.159 827.909C332.847 827.743 332.602 827.547 332.424 827.324C332.247 827.1 332.11 826.901 332.014 826.727H331.918V831.068H330.326ZM331.886 823.909C331.886 824.484 331.97 824.989 332.137 825.422C332.304 825.855 332.545 826.194 332.861 826.439C333.177 826.681 333.564 826.801 334.022 826.801C334.498 826.801 334.896 826.675 335.215 826.423C335.535 826.168 335.777 825.821 335.94 825.385C336.107 824.948 336.19 824.456 336.19 823.909C336.19 823.369 336.109 822.885 335.945 822.455C335.785 822.025 335.544 821.686 335.221 821.438C334.901 821.189 334.502 821.065 334.022 821.065C333.561 821.065 333.17 821.184 332.85 821.422C332.534 821.659 332.295 821.991 332.131 822.418C331.968 822.844 331.886 823.341 331.886 823.909ZM343.403 819.818V821.097H338.934V819.818H343.403ZM340.132 817.858H341.725V825.598C341.725 825.907 341.771 826.139 341.863 826.295C341.956 826.448 342.074 826.553 342.22 826.61C342.369 826.663 342.531 826.69 342.705 826.69C342.833 826.69 342.945 826.681 343.04 826.663C343.136 826.645 343.211 826.631 343.264 826.62L343.552 827.936C343.459 827.972 343.328 828.007 343.158 828.043C342.987 828.082 342.774 828.103 342.518 828.107C342.099 828.114 341.709 828.039 341.347 827.883C340.984 827.727 340.691 827.485 340.468 827.158C340.244 826.832 340.132 826.422 340.132 825.928V817.858ZM346.171 831.068C345.933 831.068 345.717 831.049 345.521 831.01C345.326 830.974 345.18 830.935 345.085 830.892L345.468 829.587C345.759 829.665 346.018 829.699 346.246 829.689C346.473 829.678 346.674 829.593 346.848 829.433C347.025 829.273 347.181 829.012 347.316 828.65L347.513 828.107L344.52 819.818H346.224L348.297 826.168H348.382L350.454 819.818H352.164L348.792 829.092C348.636 829.518 348.437 829.879 348.195 830.173C347.954 830.472 347.666 830.695 347.332 830.844C346.999 830.994 346.612 831.068 346.171 831.068ZM357.63 828V819.818H359.223V828H357.63ZM358.435 818.556C358.158 818.556 357.92 818.463 357.721 818.279C357.525 818.091 357.428 817.867 357.428 817.608C357.428 817.345 357.525 817.121 357.721 816.936C357.92 816.748 358.158 816.654 358.435 816.654C358.712 816.654 358.948 816.748 359.143 816.936C359.342 817.121 359.441 817.345 359.441 817.608C359.441 817.867 359.342 818.091 359.143 818.279C358.948 818.463 358.712 818.556 358.435 818.556ZM362.958 823.142V828H361.366V819.818H362.894V821.15H362.996C363.184 820.717 363.479 820.369 363.88 820.106C364.285 819.843 364.794 819.712 365.409 819.712C365.966 819.712 366.454 819.829 366.873 820.063C367.292 820.294 367.617 820.638 367.848 821.097C368.079 821.555 368.194 822.121 368.194 822.796V828H366.602V822.988C366.602 822.395 366.447 821.931 366.138 821.597C365.829 821.26 365.405 821.091 364.865 821.091C364.496 821.091 364.167 821.171 363.88 821.331C363.596 821.491 363.37 821.725 363.203 822.034C363.04 822.339 362.958 822.709 362.958 823.142ZM375.893 817.091V828H374.3V817.091H375.893ZM381.562 828.165C380.756 828.165 380.061 827.993 379.479 827.648C378.9 827.3 378.453 826.812 378.137 826.184C377.824 825.551 377.668 824.811 377.668 823.962C377.668 823.124 377.824 822.386 378.137 821.746C378.453 821.107 378.893 820.608 379.458 820.25C380.026 819.891 380.69 819.712 381.45 819.712C381.912 819.712 382.359 819.788 382.792 819.941C383.225 820.093 383.614 820.333 383.959 820.66C384.303 820.987 384.575 821.411 384.774 821.933C384.973 822.451 385.072 823.082 385.072 823.824V824.388H378.568V823.195H383.511C383.511 822.776 383.426 822.405 383.256 822.082C383.085 821.755 382.846 821.498 382.537 821.31C382.231 821.121 381.873 821.027 381.461 821.027C381.013 821.027 380.623 821.137 380.289 821.358C379.958 821.574 379.703 821.858 379.522 822.21C379.344 822.558 379.255 822.936 379.255 823.344V824.277C379.255 824.824 379.351 825.289 379.543 825.672C379.738 826.056 380.01 826.349 380.358 826.551C380.706 826.75 381.113 826.849 381.578 826.849C381.88 826.849 382.155 826.807 382.403 826.722C382.652 826.633 382.867 826.501 383.048 826.327C383.229 826.153 383.368 825.939 383.463 825.683L384.971 825.955C384.85 826.398 384.634 826.787 384.321 827.121C384.012 827.451 383.623 827.709 383.154 827.893C382.689 828.075 382.158 828.165 381.562 828.165ZM392.97 821.816L391.527 822.071C391.466 821.887 391.37 821.711 391.239 821.544C391.111 821.377 390.937 821.24 390.717 821.134C390.497 821.027 390.222 820.974 389.891 820.974C389.44 820.974 389.064 821.075 388.762 821.278C388.46 821.477 388.309 821.734 388.309 822.05C388.309 822.324 388.411 822.544 388.613 822.711C388.815 822.877 389.142 823.014 389.593 823.121L390.893 823.419C391.646 823.593 392.207 823.861 392.576 824.223C392.945 824.586 393.13 825.056 393.13 825.635C393.13 826.125 392.988 826.562 392.704 826.945C392.423 827.325 392.031 827.624 391.527 827.84C391.026 828.057 390.445 828.165 389.785 828.165C388.869 828.165 388.121 827.97 387.542 827.579C386.964 827.185 386.608 826.626 386.477 825.901L388.016 825.667C388.112 826.068 388.309 826.372 388.608 826.578C388.906 826.78 389.295 826.881 389.774 826.881C390.296 826.881 390.714 826.773 391.026 826.556C391.339 826.336 391.495 826.068 391.495 825.752C391.495 825.496 391.399 825.282 391.207 825.108C391.019 824.934 390.729 824.802 390.339 824.713L388.954 824.41C388.19 824.236 387.626 823.959 387.26 823.579C386.898 823.199 386.717 822.718 386.717 822.135C386.717 821.652 386.852 821.23 387.122 820.868C387.391 820.505 387.764 820.223 388.24 820.021C388.716 819.815 389.261 819.712 389.875 819.712C390.76 819.712 391.456 819.903 391.964 820.287C392.471 820.667 392.807 821.176 392.97 821.816ZM401.012 821.816L399.569 822.071C399.508 821.887 399.412 821.711 399.281 821.544C399.153 821.377 398.979 821.24 398.759 821.134C398.539 821.027 398.264 820.974 397.933 820.974C397.482 820.974 397.106 821.075 396.804 821.278C396.502 821.477 396.351 821.734 396.351 822.05C396.351 822.324 396.453 822.544 396.655 822.711C396.857 822.877 397.184 823.014 397.635 823.121L398.935 823.419C399.688 823.593 400.249 823.861 400.618 824.223C400.987 824.586 401.172 825.056 401.172 825.635C401.172 826.125 401.03 826.562 400.746 826.945C400.465 827.325 400.073 827.624 399.569 827.84C399.068 828.057 398.487 828.165 397.827 828.165C396.911 828.165 396.163 827.97 395.584 827.579C395.006 827.185 394.65 826.626 394.519 825.901L396.058 825.667C396.154 826.068 396.351 826.372 396.65 826.578C396.948 826.78 397.337 826.881 397.816 826.881C398.338 826.881 398.756 826.773 399.068 826.556C399.381 826.336 399.537 826.068 399.537 825.752C399.537 825.496 399.441 825.282 399.249 825.108C399.061 824.934 398.771 824.802 398.381 824.713L396.996 824.41C396.232 824.236 395.668 823.959 395.302 823.579C394.94 823.199 394.759 822.718 394.759 822.135C394.759 821.652 394.894 821.23 395.164 820.868C395.433 820.505 395.806 820.223 396.282 820.021C396.758 819.815 397.303 819.712 397.917 819.712C398.802 819.712 399.498 819.903 400.006 820.287C400.513 820.667 400.849 821.176 401.012 821.816ZM410.712 819.818V821.097H406.243V819.818H410.712ZM407.442 817.858H409.034V825.598C409.034 825.907 409.08 826.139 409.173 826.295C409.265 826.448 409.384 826.553 409.53 826.61C409.679 826.663 409.84 826.69 410.014 826.69C410.142 826.69 410.254 826.681 410.35 826.663C410.446 826.645 410.52 826.631 410.574 826.62L410.861 827.936C410.769 827.972 410.638 828.007 410.467 828.043C410.297 828.082 410.084 828.103 409.828 828.107C409.409 828.114 409.018 828.039 408.656 827.883C408.294 827.727 408.001 827.485 407.777 827.158C407.553 826.832 407.442 826.422 407.442 825.928V817.858ZM414.242 823.142V828H412.65V817.091H414.221V821.15H414.322C414.514 820.71 414.807 820.36 415.201 820.1C415.595 819.841 416.11 819.712 416.746 819.712C417.307 819.712 417.797 819.827 418.216 820.058C418.639 820.289 418.965 820.633 419.196 821.091C419.431 821.546 419.548 822.114 419.548 822.796V828H417.955V822.988C417.955 822.387 417.801 821.922 417.492 821.592C417.183 821.258 416.753 821.091 416.203 821.091C415.826 821.091 415.489 821.171 415.191 821.331C414.896 821.491 414.663 821.725 414.493 822.034C414.326 822.339 414.242 822.709 414.242 823.142ZM424.054 828.181C423.536 828.181 423.067 828.085 422.648 827.893C422.229 827.698 421.897 827.416 421.652 827.047C421.41 826.677 421.29 826.224 421.29 825.688C421.29 825.227 421.378 824.847 421.556 824.548C421.734 824.25 421.973 824.014 422.275 823.84C422.577 823.666 422.914 823.534 423.287 823.446C423.66 823.357 424.04 823.289 424.427 823.243C424.917 823.186 425.315 823.14 425.62 823.105C425.926 823.066 426.148 823.004 426.286 822.918C426.425 822.833 426.494 822.695 426.494 822.503V822.466C426.494 822 426.362 821.64 426.1 821.384C425.84 821.129 425.453 821.001 424.938 821.001C424.402 821.001 423.98 821.12 423.671 821.358C423.365 821.592 423.154 821.853 423.037 822.141L421.54 821.8C421.718 821.303 421.977 820.901 422.318 820.596C422.662 820.287 423.058 820.063 423.506 819.925C423.953 819.783 424.424 819.712 424.917 819.712C425.244 819.712 425.59 819.751 425.956 819.829C426.325 819.903 426.67 820.042 426.989 820.244C427.312 820.447 427.577 820.736 427.783 821.113C427.989 821.485 428.092 821.97 428.092 822.567V828H426.536V826.881H426.473C426.37 827.087 426.215 827.29 426.009 827.489C425.803 827.687 425.539 827.853 425.215 827.984C424.892 828.115 424.505 828.181 424.054 828.181ZM424.4 826.903C424.841 826.903 425.217 826.816 425.53 826.642C425.846 826.468 426.085 826.24 426.249 825.96C426.416 825.676 426.499 825.372 426.499 825.049V823.994C426.442 824.051 426.332 824.104 426.169 824.154C426.009 824.2 425.826 824.241 425.62 824.277C425.414 824.309 425.214 824.339 425.018 824.367C424.823 824.392 424.66 824.413 424.528 824.431C424.219 824.47 423.937 824.536 423.681 824.628C423.429 824.721 423.227 824.854 423.074 825.028C422.925 825.198 422.85 825.425 422.85 825.71C422.85 826.104 422.996 826.402 423.287 826.604C423.578 826.803 423.949 826.903 424.4 826.903ZM431.806 823.142V828H430.213V819.818H431.742V821.15H431.843C432.031 820.717 432.326 820.369 432.727 820.106C433.132 819.843 433.642 819.712 434.256 819.712C434.814 819.712 435.302 819.829 435.721 820.063C436.14 820.294 436.465 820.638 436.696 821.097C436.927 821.555 437.042 822.121 437.042 822.796V828H435.449V822.988C435.449 822.395 435.295 821.931 434.986 821.597C434.677 821.26 434.253 821.091 433.713 821.091C433.344 821.091 433.015 821.171 432.727 821.331C432.443 821.491 432.218 821.725 432.051 822.034C431.888 822.339 431.806 822.709 431.806 823.142ZM443.127 828V826.807L446.818 822.982C447.212 822.567 447.537 822.203 447.793 821.89C448.052 821.574 448.245 821.274 448.373 820.99C448.501 820.706 448.565 820.404 448.565 820.085C448.565 819.722 448.48 819.41 448.309 819.147C448.139 818.881 447.906 818.676 447.612 818.534C447.317 818.389 446.985 818.316 446.616 818.316C446.225 818.316 445.884 818.396 445.593 818.556C445.302 818.716 445.078 818.941 444.922 819.232C444.765 819.523 444.687 819.864 444.687 820.255H443.116C443.116 819.591 443.269 819.01 443.574 818.513C443.879 818.016 444.298 817.631 444.831 817.357C445.364 817.08 445.969 816.942 446.647 816.942C447.333 816.942 447.937 817.078 448.459 817.352C448.984 817.622 449.394 817.991 449.689 818.46C449.984 818.925 450.131 819.451 450.131 820.037C450.131 820.441 450.055 820.837 449.902 821.224C449.753 821.612 449.492 822.043 449.119 822.519C448.746 822.991 448.228 823.565 447.564 824.239L445.396 826.509V826.588H450.307V828H443.127ZM175.663 841.142V846H174.071V835.091H175.642V839.15H175.743C175.935 838.71 176.228 838.36 176.622 838.1C177.016 837.841 177.531 837.712 178.167 837.712C178.728 837.712 179.218 837.827 179.637 838.058C180.06 838.289 180.386 838.633 180.617 839.091C180.852 839.546 180.969 840.114 180.969 840.796V846H179.376V840.988C179.376 840.387 179.222 839.922 178.913 839.592C178.604 839.258 178.174 839.091 177.624 839.091C177.247 839.091 176.91 839.171 176.612 839.331C176.317 839.491 176.084 839.725 175.914 840.034C175.747 840.339 175.663 840.709 175.663 841.142ZM186.54 846.165C185.773 846.165 185.104 845.989 184.532 845.638C183.961 845.286 183.517 844.794 183.201 844.162C182.885 843.53 182.727 842.792 182.727 841.946C182.727 841.098 182.885 840.355 183.201 839.72C183.517 839.084 183.961 838.591 184.532 838.239C185.104 837.887 185.773 837.712 186.54 837.712C187.308 837.712 187.977 837.887 188.549 838.239C189.12 838.591 189.564 839.084 189.88 839.72C190.196 840.355 190.354 841.098 190.354 841.946C190.354 842.792 190.196 843.53 189.88 844.162C189.564 844.794 189.12 845.286 188.549 845.638C187.977 845.989 187.308 846.165 186.54 846.165ZM186.546 844.828C187.043 844.828 187.455 844.697 187.782 844.434C188.108 844.171 188.35 843.821 188.506 843.385C188.666 842.948 188.746 842.467 188.746 841.941C188.746 841.419 188.666 840.94 188.506 840.503C188.35 840.062 188.108 839.709 187.782 839.443C187.455 839.176 187.043 839.043 186.546 839.043C186.045 839.043 185.63 839.176 185.299 839.443C184.973 839.709 184.729 840.062 184.57 840.503C184.413 840.94 184.335 841.419 184.335 841.941C184.335 842.467 184.413 842.948 184.57 843.385C184.729 843.821 184.973 844.171 185.299 844.434C185.63 844.697 186.045 844.828 186.546 844.828ZM197.315 842.607V837.818H198.913V846H197.347V844.583H197.262C197.074 845.02 196.772 845.384 196.356 845.675C195.944 845.963 195.431 846.107 194.817 846.107C194.291 846.107 193.826 845.991 193.421 845.76C193.02 845.526 192.704 845.18 192.473 844.722C192.246 844.263 192.132 843.697 192.132 843.022V837.818H193.725V842.831C193.725 843.388 193.879 843.832 194.188 844.162C194.497 844.493 194.899 844.658 195.392 844.658C195.69 844.658 195.987 844.583 196.282 844.434C196.58 844.285 196.827 844.059 197.022 843.757C197.221 843.456 197.319 843.072 197.315 842.607ZM201.053 846V837.818H202.593V839.118H202.678C202.827 838.678 203.09 838.331 203.466 838.079C203.846 837.824 204.276 837.696 204.755 837.696C204.855 837.696 204.972 837.699 205.107 837.706C205.245 837.713 205.354 837.722 205.432 837.733V839.256C205.368 839.239 205.254 839.219 205.091 839.198C204.927 839.173 204.764 839.161 204.601 839.161C204.224 839.161 203.889 839.24 203.594 839.4C203.303 839.556 203.072 839.775 202.901 840.055C202.731 840.332 202.646 840.648 202.646 841.004V846H201.053ZM212.941 839.816L211.497 840.071C211.437 839.887 211.341 839.711 211.21 839.544C211.082 839.377 210.908 839.24 210.688 839.134C210.468 839.027 210.192 838.974 209.862 838.974C209.411 838.974 209.035 839.075 208.733 839.278C208.431 839.477 208.28 839.734 208.28 840.05C208.28 840.324 208.381 840.544 208.584 840.711C208.786 840.877 209.113 841.014 209.564 841.121L210.864 841.419C211.616 841.593 212.177 841.861 212.547 842.223C212.916 842.586 213.101 843.056 213.101 843.635C213.101 844.125 212.959 844.562 212.675 844.945C212.394 845.325 212.002 845.624 211.497 845.84C210.997 846.057 210.416 846.165 209.756 846.165C208.839 846.165 208.092 845.97 207.513 845.579C206.934 845.185 206.579 844.626 206.448 843.901L207.987 843.667C208.083 844.068 208.28 844.372 208.578 844.578C208.877 844.78 209.266 844.881 209.745 844.881C210.267 844.881 210.684 844.773 210.997 844.556C211.309 844.336 211.465 844.068 211.465 843.752C211.465 843.496 211.37 843.282 211.178 843.108C210.99 842.934 210.7 842.802 210.31 842.713L208.925 842.41C208.161 842.236 207.597 841.959 207.231 841.579C206.869 841.199 206.687 840.718 206.687 840.135C206.687 839.652 206.822 839.23 207.092 838.868C207.362 838.505 207.735 838.223 208.211 838.021C208.687 837.815 209.232 837.712 209.846 837.712C210.73 837.712 211.426 837.903 211.934 838.287C212.442 838.667 212.778 839.176 212.941 839.816ZM215.901 846.101C215.61 846.101 215.36 845.998 215.15 845.792C214.941 845.583 214.836 845.331 214.836 845.036C214.836 844.745 214.941 844.496 215.15 844.29C215.36 844.081 215.61 843.976 215.901 843.976C216.192 843.976 216.443 844.081 216.652 844.29C216.862 844.496 216.967 844.745 216.967 845.036C216.967 845.231 216.917 845.411 216.817 845.574C216.722 845.734 216.594 845.862 216.434 845.957C216.274 846.053 216.097 846.101 215.901 846.101ZM232.082 838.638H230.421C230.357 838.283 230.238 837.971 230.064 837.701C229.89 837.431 229.677 837.202 229.424 837.014C229.172 836.826 228.89 836.684 228.578 836.588C228.269 836.492 227.94 836.444 227.592 836.444C226.964 836.444 226.401 836.602 225.903 836.918C225.41 837.234 225.019 837.697 224.732 838.308C224.448 838.919 224.305 839.665 224.305 840.545C224.305 841.433 224.448 842.183 224.732 842.793C225.019 843.404 225.412 843.866 225.909 844.178C226.406 844.491 226.965 844.647 227.587 844.647C227.931 844.647 228.258 844.601 228.567 844.509C228.879 844.413 229.162 844.272 229.414 844.088C229.666 843.903 229.879 843.678 230.053 843.411C230.231 843.141 230.353 842.832 230.421 842.484L232.082 842.49C231.994 843.026 231.821 843.52 231.566 843.971C231.314 844.418 230.989 844.805 230.591 845.132C230.197 845.455 229.746 845.705 229.238 845.883C228.73 846.06 228.176 846.149 227.576 846.149C226.631 846.149 225.79 845.925 225.051 845.478C224.313 845.027 223.73 844.382 223.304 843.544C222.881 842.706 222.67 841.707 222.67 840.545C222.67 839.381 222.883 838.381 223.309 837.547C223.736 836.708 224.318 836.066 225.057 835.618C225.795 835.167 226.635 834.942 227.576 834.942C228.155 834.942 228.695 835.025 229.195 835.192C229.7 835.355 230.152 835.597 230.554 835.917C230.955 836.233 231.287 836.62 231.55 837.078C231.813 837.532 231.99 838.053 232.082 838.638ZM235.517 841.142V846H233.924V835.091H235.496V839.15H235.597C235.789 838.71 236.081 838.36 236.476 838.1C236.87 837.841 237.385 837.712 238.02 837.712C238.581 837.712 239.072 837.827 239.491 838.058C239.913 838.289 240.24 838.633 240.471 839.091C240.705 839.546 240.822 840.114 240.822 840.796V846H239.23V840.988C239.23 840.387 239.075 839.922 238.766 839.592C238.457 839.258 238.028 839.091 237.477 839.091C237.101 839.091 236.763 839.171 236.465 839.331C236.17 839.491 235.938 839.725 235.767 840.034C235.6 840.339 235.517 840.709 235.517 841.142ZM245.329 846.181C244.81 846.181 244.341 846.085 243.922 845.893C243.503 845.698 243.171 845.416 242.926 845.047C242.685 844.677 242.564 844.224 242.564 843.688C242.564 843.227 242.653 842.847 242.83 842.548C243.008 842.25 243.248 842.014 243.55 841.84C243.851 841.666 244.189 841.534 244.562 841.446C244.934 841.357 245.314 841.289 245.702 841.243C246.192 841.186 246.589 841.14 246.895 841.105C247.2 841.066 247.422 841.004 247.561 840.918C247.699 840.833 247.768 840.695 247.768 840.503V840.466C247.768 840 247.637 839.64 247.374 839.384C247.115 839.129 246.728 839.001 246.213 839.001C245.677 839.001 245.254 839.12 244.945 839.358C244.64 839.592 244.428 839.853 244.311 840.141L242.814 839.8C242.992 839.303 243.251 838.901 243.592 838.596C243.937 838.287 244.333 838.063 244.78 837.925C245.227 837.783 245.698 837.712 246.192 837.712C246.518 837.712 246.865 837.751 247.23 837.829C247.6 837.903 247.944 838.042 248.264 838.244C248.587 838.447 248.851 838.736 249.057 839.113C249.263 839.485 249.366 839.97 249.366 840.567V846H247.811V844.881H247.747C247.644 845.087 247.49 845.29 247.284 845.489C247.078 845.687 246.813 845.853 246.49 845.984C246.167 846.115 245.78 846.181 245.329 846.181ZM245.675 844.903C246.115 844.903 246.492 844.816 246.804 844.642C247.12 844.468 247.36 844.24 247.523 843.96C247.69 843.676 247.774 843.372 247.774 843.049V841.994C247.717 842.051 247.607 842.104 247.443 842.154C247.284 842.2 247.101 842.241 246.895 842.277C246.689 842.309 246.488 842.339 246.293 842.367C246.097 842.392 245.934 842.413 245.803 842.431C245.494 842.47 245.211 842.536 244.956 842.628C244.704 842.721 244.501 842.854 244.349 843.028C244.199 843.198 244.125 843.425 244.125 843.71C244.125 844.104 244.27 844.402 244.562 844.604C244.853 844.803 245.224 844.903 245.675 844.903ZM251.488 846V837.818H253.027V839.118H253.112C253.261 838.678 253.524 838.331 253.901 838.079C254.281 837.824 254.71 837.696 255.19 837.696C255.289 837.696 255.406 837.699 255.541 837.706C255.68 837.713 255.788 837.722 255.866 837.733V839.256C255.802 839.239 255.689 839.219 255.525 839.198C255.362 839.173 255.199 839.161 255.035 839.161C254.659 839.161 254.323 839.24 254.028 839.4C253.737 839.556 253.506 839.775 253.336 840.055C253.166 840.332 253.08 840.648 253.08 841.004V846H251.488ZM260.382 849.239C259.732 849.239 259.173 849.153 258.704 848.983C258.239 848.813 257.859 848.587 257.564 848.306C257.269 848.026 257.049 847.719 256.904 847.385L258.273 846.82C258.368 846.977 258.496 847.142 258.656 847.316C258.819 847.493 259.04 847.644 259.317 847.768C259.597 847.893 259.958 847.955 260.398 847.955C261.002 847.955 261.501 847.808 261.895 847.513C262.289 847.222 262.486 846.756 262.486 846.117V844.509H262.385C262.289 844.683 262.15 844.876 261.969 845.089C261.792 845.302 261.547 845.487 261.234 845.643C260.922 845.799 260.515 845.877 260.014 845.877C259.368 845.877 258.786 845.727 258.267 845.425C257.752 845.119 257.344 844.67 257.042 844.077C256.744 843.48 256.595 842.747 256.595 841.877C256.595 841.007 256.742 840.261 257.037 839.64C257.335 839.018 257.743 838.543 258.262 838.212C258.78 837.879 259.368 837.712 260.025 837.712C260.533 837.712 260.943 837.797 261.256 837.967C261.568 838.134 261.811 838.33 261.985 838.553C262.163 838.777 262.3 838.974 262.395 839.145H262.513V837.818H264.073V846.181C264.073 846.884 263.91 847.461 263.583 847.912C263.257 848.363 262.814 848.697 262.257 848.914C261.703 849.13 261.078 849.239 260.382 849.239ZM260.366 844.556C260.824 844.556 261.211 844.45 261.527 844.237C261.847 844.02 262.088 843.711 262.252 843.31C262.419 842.905 262.502 842.42 262.502 841.856C262.502 841.305 262.42 840.821 262.257 840.402C262.094 839.983 261.854 839.656 261.538 839.422C261.222 839.184 260.831 839.065 260.366 839.065C259.887 839.065 259.487 839.189 259.167 839.438C258.848 839.683 258.606 840.016 258.443 840.439C258.283 840.862 258.203 841.334 258.203 841.856C258.203 842.392 258.285 842.863 258.448 843.267C258.612 843.672 258.853 843.988 259.173 844.216C259.496 844.443 259.894 844.556 260.366 844.556ZM269.736 846.165C268.93 846.165 268.235 845.993 267.653 845.648C267.074 845.3 266.627 844.812 266.311 844.184C265.998 843.551 265.842 842.811 265.842 841.962C265.842 841.124 265.998 840.386 266.311 839.746C266.627 839.107 267.067 838.608 267.632 838.25C268.2 837.891 268.864 837.712 269.624 837.712C270.085 837.712 270.533 837.788 270.966 837.941C271.399 838.093 271.788 838.333 272.133 838.66C272.477 838.987 272.749 839.411 272.948 839.933C273.146 840.451 273.246 841.082 273.246 841.824V842.388H266.742V841.195H271.685C271.685 840.776 271.6 840.405 271.43 840.082C271.259 839.755 271.019 839.498 270.71 839.31C270.405 839.121 270.046 839.027 269.634 839.027C269.187 839.027 268.796 839.137 268.463 839.358C268.132 839.574 267.877 839.858 267.695 840.21C267.518 840.558 267.429 840.936 267.429 841.344V842.277C267.429 842.824 267.525 843.289 267.717 843.672C267.912 844.056 268.184 844.349 268.532 844.551C268.88 844.75 269.286 844.849 269.752 844.849C270.053 844.849 270.329 844.807 270.577 844.722C270.826 844.633 271.041 844.501 271.222 844.327C271.403 844.153 271.541 843.939 271.637 843.683L273.145 843.955C273.024 844.398 272.807 844.787 272.495 845.121C272.186 845.451 271.797 845.709 271.328 845.893C270.863 846.075 270.332 846.165 269.736 846.165ZM278.983 846V837.818H280.575V846H278.983ZM279.787 836.556C279.51 836.556 279.272 836.463 279.073 836.279C278.878 836.091 278.78 835.867 278.78 835.608C278.78 835.345 278.878 835.121 279.073 834.936C279.272 834.748 279.51 834.654 279.787 834.654C280.064 834.654 280.3 834.748 280.496 834.936C280.694 835.121 280.794 835.345 280.794 835.608C280.794 835.867 280.694 836.091 280.496 836.279C280.3 836.463 280.064 836.556 279.787 836.556ZM286.537 837.818V839.097H282.068V837.818H286.537ZM283.267 835.858H284.859V843.598C284.859 843.907 284.906 844.139 284.998 844.295C285.09 844.448 285.209 844.553 285.355 844.61C285.504 844.663 285.666 844.69 285.84 844.69C285.967 844.69 286.079 844.681 286.175 844.663C286.271 844.645 286.346 844.631 286.399 844.62L286.687 845.936C286.594 845.972 286.463 846.007 286.292 846.043C286.122 846.082 285.909 846.103 285.653 846.107C285.234 846.114 284.843 846.039 284.481 845.883C284.119 845.727 283.826 845.485 283.602 845.158C283.379 844.832 283.267 844.422 283.267 843.928V835.858ZM293.862 841.142V846H292.269V837.818H293.798V839.15H293.899C294.087 838.717 294.382 838.369 294.783 838.106C295.188 837.843 295.698 837.712 296.312 837.712C296.869 837.712 297.358 837.829 297.777 838.063C298.196 838.294 298.521 838.638 298.752 839.097C298.982 839.555 299.098 840.121 299.098 840.796V846H297.505V840.988C297.505 840.395 297.351 839.931 297.042 839.597C296.733 839.26 296.308 839.091 295.769 839.091C295.399 839.091 295.071 839.171 294.783 839.331C294.499 839.491 294.274 839.725 294.107 840.034C293.943 840.339 293.862 840.709 293.862 841.142ZM304.68 846.165C303.913 846.165 303.244 845.989 302.672 845.638C302.1 845.286 301.656 844.794 301.34 844.162C301.024 843.53 300.866 842.792 300.866 841.946C300.866 841.098 301.024 840.355 301.34 839.72C301.656 839.084 302.1 838.591 302.672 838.239C303.244 837.887 303.913 837.712 304.68 837.712C305.447 837.712 306.117 837.887 306.688 838.239C307.26 838.591 307.704 839.084 308.02 839.72C308.336 840.355 308.494 841.098 308.494 841.946C308.494 842.792 308.336 843.53 308.02 844.162C307.704 844.794 307.26 845.286 306.688 845.638C306.117 845.989 305.447 846.165 304.68 846.165ZM304.685 844.828C305.183 844.828 305.595 844.697 305.921 844.434C306.248 844.171 306.489 843.821 306.646 843.385C306.805 842.948 306.885 842.467 306.885 841.941C306.885 841.419 306.805 840.94 306.646 840.503C306.489 840.062 306.248 839.709 305.921 839.443C305.595 839.176 305.183 839.043 304.685 839.043C304.185 839.043 303.769 839.176 303.439 839.443C303.112 839.709 302.869 840.062 302.709 840.503C302.553 840.94 302.475 841.419 302.475 841.941C302.475 842.467 302.553 842.948 302.709 843.385C302.869 843.821 303.112 844.171 303.439 844.434C303.769 844.697 304.185 844.828 304.685 844.828ZM311.797 846L309.389 837.818H311.035L312.638 843.827H312.718L314.327 837.818H315.973L317.571 843.8H317.651L319.243 837.818H320.889L318.487 846H316.862L315.2 840.093H315.078L313.416 846H311.797ZM330.19 837.818V839.097H325.721V837.818H330.19ZM326.919 835.858H328.512V843.598C328.512 843.907 328.558 844.139 328.65 844.295C328.743 844.448 328.862 844.553 329.007 844.61C329.156 844.663 329.318 844.69 329.492 844.69C329.62 844.69 329.732 844.681 329.828 844.663C329.923 844.645 329.998 844.631 330.051 844.62L330.339 845.936C330.247 845.972 330.115 846.007 329.945 846.043C329.774 846.082 329.561 846.103 329.305 846.107C328.886 846.114 328.496 846.039 328.134 845.883C327.771 845.727 327.478 845.485 327.255 845.158C327.031 844.832 326.919 844.422 326.919 843.928V835.858ZM335.31 846.165C334.543 846.165 333.874 845.989 333.302 845.638C332.73 845.286 332.286 844.794 331.97 844.162C331.654 843.53 331.496 842.792 331.496 841.946C331.496 841.098 331.654 840.355 331.97 839.72C332.286 839.084 332.73 838.591 333.302 838.239C333.874 837.887 334.543 837.712 335.31 837.712C336.077 837.712 336.746 837.887 337.318 838.239C337.89 838.591 338.334 839.084 338.65 839.72C338.966 840.355 339.124 841.098 339.124 841.946C339.124 842.792 338.966 843.53 338.65 844.162C338.334 844.794 337.89 845.286 337.318 845.638C336.746 845.989 336.077 846.165 335.31 846.165ZM335.315 844.828C335.813 844.828 336.224 844.697 336.551 844.434C336.878 844.171 337.119 843.821 337.276 843.385C337.435 842.948 337.515 842.467 337.515 841.941C337.515 841.419 337.435 840.94 337.276 840.503C337.119 840.062 336.878 839.709 336.551 839.443C336.224 839.176 335.813 839.043 335.315 839.043C334.815 839.043 334.399 839.176 334.069 839.443C333.742 839.709 333.499 840.062 333.339 840.503C333.183 840.94 333.105 841.419 333.105 841.941C333.105 842.467 333.183 842.948 333.339 843.385C333.499 843.821 333.742 844.171 334.069 844.434C334.399 844.697 334.815 844.828 335.315 844.828ZM344.871 849.068V837.818H346.427V839.145H346.56C346.652 838.974 346.786 838.777 346.96 838.553C347.134 838.33 347.375 838.134 347.684 837.967C347.993 837.797 348.401 837.712 348.909 837.712C349.57 837.712 350.159 837.879 350.678 838.212C351.196 838.546 351.603 839.027 351.897 839.656C352.196 840.284 352.345 841.041 352.345 841.925C352.345 842.809 352.197 843.567 351.903 844.2C351.608 844.828 351.203 845.313 350.688 845.654C350.173 845.991 349.586 846.16 348.925 846.16C348.428 846.16 348.021 846.076 347.705 845.909C347.393 845.743 347.148 845.547 346.97 845.324C346.793 845.1 346.656 844.901 346.56 844.727H346.464V849.068H344.871ZM346.432 841.909C346.432 842.484 346.516 842.989 346.683 843.422C346.849 843.855 347.091 844.194 347.407 844.439C347.723 844.681 348.11 844.801 348.568 844.801C349.044 844.801 349.442 844.675 349.761 844.423C350.081 844.168 350.322 843.821 350.486 843.385C350.653 842.948 350.736 842.456 350.736 841.909C350.736 841.369 350.654 840.885 350.491 840.455C350.331 840.025 350.09 839.686 349.767 839.438C349.447 839.189 349.048 839.065 348.568 839.065C348.107 839.065 347.716 839.184 347.396 839.422C347.08 839.659 346.841 839.991 346.677 840.418C346.514 840.844 346.432 841.341 346.432 841.909ZM354.129 846V837.818H355.669V839.118H355.754C355.903 838.678 356.166 838.331 356.542 838.079C356.922 837.824 357.352 837.696 357.831 837.696C357.931 837.696 358.048 837.699 358.183 837.706C358.321 837.713 358.43 837.722 358.508 837.733V839.256C358.444 839.239 358.33 839.219 358.167 839.198C358.004 839.173 357.84 839.161 357.677 839.161C357.3 839.161 356.965 839.24 356.67 839.4C356.379 839.556 356.148 839.775 355.978 840.055C355.807 840.332 355.722 840.648 355.722 841.004V846H354.129ZM363.119 846.165C362.313 846.165 361.619 845.993 361.037 845.648C360.458 845.3 360.01 844.812 359.694 844.184C359.382 843.551 359.226 842.811 359.226 841.962C359.226 841.124 359.382 840.386 359.694 839.746C360.01 839.107 360.451 838.608 361.015 838.25C361.584 837.891 362.248 837.712 363.008 837.712C363.469 837.712 363.917 837.788 364.35 837.941C364.783 838.093 365.172 838.333 365.516 838.66C365.861 838.987 366.133 839.411 366.331 839.933C366.53 840.451 366.63 841.082 366.63 841.824V842.388H360.126V841.195H365.069C365.069 840.776 364.984 840.405 364.813 840.082C364.643 839.755 364.403 839.498 364.094 839.31C363.789 839.121 363.43 839.027 363.018 839.027C362.571 839.027 362.18 839.137 361.846 839.358C361.516 839.574 361.26 839.858 361.079 840.21C360.902 840.558 360.813 840.936 360.813 841.344V842.277C360.813 842.824 360.909 843.289 361.101 843.672C361.296 844.056 361.568 844.349 361.916 844.551C362.264 844.75 362.67 844.849 363.135 844.849C363.437 844.849 363.712 844.807 363.961 844.722C364.21 844.633 364.424 844.501 364.606 844.327C364.787 844.153 364.925 843.939 365.021 843.683L366.528 843.955C366.408 844.398 366.191 844.787 365.879 845.121C365.57 845.451 365.181 845.709 364.712 845.893C364.247 846.075 363.716 846.165 363.119 846.165ZM375.162 837.818L372.195 846H370.49L367.518 837.818H369.228L371.3 844.114H371.385L373.452 837.818H375.162ZM379.907 846.165C379.1 846.165 378.406 845.993 377.824 845.648C377.245 845.3 376.797 844.812 376.481 844.184C376.169 843.551 376.013 842.811 376.013 841.962C376.013 841.124 376.169 840.386 376.481 839.746C376.797 839.107 377.238 838.608 377.802 838.25C378.371 837.891 379.035 837.712 379.795 837.712C380.256 837.712 380.704 837.788 381.137 837.941C381.57 838.093 381.959 838.333 382.304 838.66C382.648 838.987 382.92 839.411 383.119 839.933C383.317 840.451 383.417 841.082 383.417 841.824V842.388H376.913V841.195H381.856C381.856 840.776 381.771 840.405 381.6 840.082C381.43 839.755 381.19 839.498 380.881 839.31C380.576 839.121 380.217 839.027 379.805 839.027C379.358 839.027 378.967 839.137 378.633 839.358C378.303 839.574 378.047 839.858 377.866 840.21C377.689 840.558 377.6 840.936 377.6 841.344V842.277C377.6 842.824 377.696 843.289 377.888 843.672C378.083 844.056 378.355 844.349 378.703 844.551C379.051 844.75 379.457 844.849 379.922 844.849C380.224 844.849 380.5 844.807 380.748 844.722C380.997 844.633 381.212 844.501 381.393 844.327C381.574 844.153 381.712 843.939 381.808 843.683L383.316 843.955C383.195 844.398 382.978 844.787 382.666 845.121C382.357 845.451 381.968 845.709 381.499 845.893C381.034 846.075 380.503 846.165 379.907 846.165ZM386.777 841.142V846H385.184V837.818H386.713V839.15H386.814C387.002 838.717 387.297 838.369 387.698 838.106C388.103 837.843 388.613 837.712 389.227 837.712C389.784 837.712 390.273 837.829 390.692 838.063C391.111 838.294 391.436 838.638 391.667 839.097C391.897 839.555 392.013 840.121 392.013 840.796V846H390.42V840.988C390.42 840.395 390.266 839.931 389.957 839.597C389.648 839.26 389.223 839.091 388.684 839.091C388.314 839.091 387.986 839.171 387.698 839.331C387.414 839.491 387.189 839.725 387.022 840.034C386.858 840.339 386.777 840.709 386.777 841.142ZM397.968 837.818V839.097H393.499V837.818H397.968ZM394.697 835.858H396.29V843.598C396.29 843.907 396.336 844.139 396.429 844.295C396.521 844.448 396.64 844.553 396.786 844.61C396.935 844.663 397.096 844.69 397.27 844.69C397.398 844.69 397.51 844.681 397.606 844.663C397.702 844.645 397.776 844.631 397.83 844.62L398.117 845.936C398.025 845.972 397.893 846.007 397.723 846.043C397.553 846.082 397.339 846.103 397.084 846.107C396.665 846.114 396.274 846.039 395.912 845.883C395.55 845.727 395.257 845.485 395.033 845.158C394.809 844.832 394.697 844.422 394.697 843.928V835.858ZM403.7 846V837.818H405.292V846H403.7ZM404.504 836.556C404.227 836.556 403.989 836.463 403.79 836.279C403.595 836.091 403.497 835.867 403.497 835.608C403.497 835.345 403.595 835.121 403.79 834.936C403.989 834.748 404.227 834.654 404.504 834.654C404.781 834.654 405.017 834.748 405.212 834.936C405.411 835.121 405.511 835.345 405.511 835.608C405.511 835.867 405.411 836.091 405.212 836.279C405.017 836.463 404.781 836.556 404.504 836.556ZM411.254 837.818V839.097H406.785V837.818H411.254ZM407.984 835.858H409.576V843.598C409.576 843.907 409.622 844.139 409.715 844.295C409.807 844.448 409.926 844.553 410.072 844.61C410.221 844.663 410.382 844.69 410.556 844.69C410.684 844.69 410.796 844.681 410.892 844.663C410.988 844.645 411.062 844.631 411.116 844.62L411.403 845.936C411.311 845.972 411.18 846.007 411.009 846.043C410.839 846.082 410.626 846.103 410.37 846.107C409.951 846.114 409.56 846.039 409.198 845.883C408.836 845.727 408.543 845.485 408.319 845.158C408.095 844.832 407.984 844.422 407.984 843.928V835.858ZM420.88 837.818V839.097H416.256V837.818H420.88ZM417.524 846V836.87C417.524 836.359 417.636 835.934 417.859 835.597C418.083 835.256 418.38 835.002 418.749 834.835C419.118 834.665 419.519 834.58 419.953 834.58C420.272 834.58 420.546 834.606 420.773 834.659C421 834.709 421.169 834.755 421.279 834.798L420.906 836.087C420.832 836.066 420.736 836.041 420.619 836.012C420.501 835.98 420.359 835.964 420.192 835.964C419.805 835.964 419.528 836.06 419.361 836.252C419.198 836.444 419.116 836.721 419.116 837.083V846H417.524ZM422.523 846V837.818H424.062V839.118H424.147C424.297 838.678 424.559 838.331 424.936 838.079C425.316 837.824 425.745 837.696 426.225 837.696C426.324 837.696 426.441 837.699 426.576 837.706C426.715 837.713 426.823 837.722 426.901 837.733V839.256C426.837 839.239 426.724 839.219 426.56 839.198C426.397 839.173 426.234 839.161 426.07 839.161C425.694 839.161 425.358 839.24 425.064 839.4C424.772 839.556 424.542 839.775 424.371 840.055C424.201 840.332 424.116 840.648 424.116 841.004V846H422.523ZM431.433 846.165C430.666 846.165 429.997 845.989 429.425 845.638C428.853 845.286 428.409 844.794 428.093 844.162C427.777 843.53 427.619 842.792 427.619 841.946C427.619 841.098 427.777 840.355 428.093 839.72C428.409 839.084 428.853 838.591 429.425 838.239C429.997 837.887 430.666 837.712 431.433 837.712C432.2 837.712 432.869 837.887 433.441 838.239C434.013 838.591 434.457 839.084 434.773 839.72C435.089 840.355 435.247 841.098 435.247 841.946C435.247 842.792 435.089 843.53 434.773 844.162C434.457 844.794 434.013 845.286 433.441 845.638C432.869 845.989 432.2 846.165 431.433 846.165ZM431.438 844.828C431.936 844.828 432.347 844.697 432.674 844.434C433.001 844.171 433.242 843.821 433.399 843.385C433.558 842.948 433.638 842.467 433.638 841.941C433.638 841.419 433.558 840.94 433.399 840.503C433.242 840.062 433.001 839.709 432.674 839.443C432.347 839.176 431.936 839.043 431.438 839.043C430.938 839.043 430.522 839.176 430.192 839.443C429.865 839.709 429.622 840.062 429.462 840.503C429.306 840.94 429.228 841.419 429.228 841.941C429.228 842.467 429.306 842.948 429.462 843.385C429.622 843.821 429.865 844.171 430.192 844.434C430.522 844.697 430.938 844.828 431.438 844.828ZM437.025 846V837.818H438.554V839.15H438.655C438.825 838.699 439.104 838.347 439.491 838.095C439.878 837.839 440.342 837.712 440.881 837.712C441.428 837.712 441.886 837.839 442.256 838.095C442.628 838.351 442.904 838.702 443.081 839.15H443.166C443.362 838.713 443.672 838.365 444.099 838.106C444.525 837.843 445.033 837.712 445.622 837.712C446.364 837.712 446.97 837.944 447.438 838.409C447.911 838.875 448.147 839.576 448.147 840.513V846H446.554V840.663C446.554 840.109 446.403 839.707 446.101 839.459C445.8 839.21 445.439 839.086 445.02 839.086C444.502 839.086 444.099 839.246 443.811 839.565C443.523 839.881 443.38 840.288 443.38 840.785V846H441.792V840.561C441.792 840.118 441.654 839.761 441.377 839.491C441.1 839.221 440.739 839.086 440.295 839.086C439.994 839.086 439.715 839.166 439.459 839.326C439.207 839.482 439.003 839.7 438.847 839.981C438.694 840.261 438.617 840.586 438.617 840.956V846H437.025ZM177.89 855.818V857.097H173.421V855.818H177.89ZM174.619 853.858H176.212V861.598C176.212 861.907 176.258 862.139 176.35 862.295C176.443 862.448 176.562 862.553 176.707 862.61C176.857 862.663 177.018 862.69 177.192 862.69C177.32 862.69 177.432 862.681 177.528 862.663C177.624 862.645 177.698 862.631 177.751 862.62L178.039 863.936C177.947 863.972 177.815 864.007 177.645 864.043C177.474 864.082 177.261 864.103 177.006 864.107C176.587 864.114 176.196 864.039 175.834 863.883C175.472 863.727 175.179 863.485 174.955 863.158C174.731 862.832 174.619 862.422 174.619 861.928V853.858ZM184.835 860.607V855.818H186.433V864H184.867V862.583H184.781C184.593 863.02 184.291 863.384 183.876 863.675C183.464 863.963 182.951 864.107 182.336 864.107C181.811 864.107 181.346 863.991 180.941 863.76C180.54 863.526 180.223 863.18 179.993 862.722C179.765 862.263 179.652 861.697 179.652 861.022V855.818H181.244V860.831C181.244 861.388 181.399 861.832 181.708 862.162C182.017 862.493 182.418 862.658 182.912 862.658C183.21 862.658 183.506 862.583 183.801 862.434C184.1 862.285 184.346 862.059 184.542 861.757C184.741 861.456 184.838 861.072 184.835 860.607ZM188.573 864V855.818H190.112V857.118H190.197C190.346 856.678 190.609 856.331 190.986 856.079C191.366 855.824 191.795 855.696 192.275 855.696C192.374 855.696 192.491 855.699 192.626 855.706C192.765 855.713 192.873 855.722 192.951 855.733V857.256C192.887 857.239 192.774 857.219 192.61 857.198C192.447 857.173 192.284 857.161 192.12 857.161C191.744 857.161 191.408 857.24 191.113 857.4C190.822 857.556 190.591 857.775 190.421 858.055C190.251 858.332 190.165 858.648 190.165 859.004V864H188.573ZM195.922 859.142V864H194.329V855.818H195.858V857.15H195.959C196.148 856.717 196.442 856.369 196.844 856.106C197.248 855.843 197.758 855.712 198.372 855.712C198.93 855.712 199.418 855.829 199.837 856.063C200.256 856.294 200.581 856.638 200.812 857.097C201.043 857.555 201.158 858.121 201.158 858.796V864H199.566V858.988C199.566 858.395 199.411 857.931 199.102 857.597C198.793 857.26 198.369 857.091 197.829 857.091C197.46 857.091 197.131 857.171 196.844 857.331C196.56 857.491 196.334 857.725 196.167 858.034C196.004 858.339 195.922 858.709 195.922 859.142ZM203.294 864V855.818H204.887V864H203.294ZM204.099 854.556C203.822 854.556 203.584 854.463 203.385 854.279C203.19 854.091 203.092 853.867 203.092 853.608C203.092 853.345 203.19 853.121 203.385 852.936C203.584 852.748 203.822 852.654 204.099 852.654C204.376 852.654 204.612 852.748 204.807 852.936C205.006 853.121 205.105 853.345 205.105 853.608C205.105 853.867 205.006 854.091 204.807 854.279C204.612 854.463 204.376 854.556 204.099 854.556ZM208.622 859.142V864H207.03V855.818H208.558V857.15H208.66C208.848 856.717 209.143 856.369 209.544 856.106C209.949 855.843 210.458 855.712 211.073 855.712C211.63 855.712 212.118 855.829 212.537 856.063C212.956 856.294 213.281 856.638 213.512 857.097C213.743 857.555 213.858 858.121 213.858 858.796V864H212.266V858.988C212.266 858.395 212.111 857.931 211.802 857.597C211.493 857.26 211.069 857.091 210.529 857.091C210.16 857.091 209.831 857.171 209.544 857.331C209.26 857.491 209.034 857.725 208.867 858.034C208.704 858.339 208.622 858.709 208.622 859.142ZM219.425 867.239C218.775 867.239 218.216 867.153 217.747 866.983C217.282 866.813 216.902 866.587 216.607 866.306C216.312 866.026 216.092 865.719 215.947 865.385L217.316 864.82C217.411 864.977 217.539 865.142 217.699 865.316C217.862 865.493 218.083 865.644 218.36 865.768C218.64 865.893 219.001 865.955 219.441 865.955C220.045 865.955 220.544 865.808 220.938 865.513C221.332 865.222 221.529 864.756 221.529 864.117V862.509H221.428C221.332 862.683 221.193 862.876 221.012 863.089C220.835 863.302 220.59 863.487 220.277 863.643C219.965 863.799 219.558 863.877 219.057 863.877C218.411 863.877 217.829 863.727 217.31 863.425C216.795 863.119 216.387 862.67 216.085 862.077C215.787 861.48 215.638 860.747 215.638 859.877C215.638 859.007 215.785 858.261 216.08 857.64C216.378 857.018 216.786 856.543 217.305 856.212C217.823 855.879 218.411 855.712 219.068 855.712C219.576 855.712 219.986 855.797 220.298 855.967C220.611 856.134 220.854 856.33 221.028 856.553C221.206 856.777 221.343 856.974 221.438 857.145H221.556V855.818H223.116V864.181C223.116 864.884 222.953 865.461 222.626 865.912C222.3 866.363 221.857 866.697 221.3 866.914C220.746 867.13 220.121 867.239 219.425 867.239ZM219.409 862.556C219.867 862.556 220.254 862.45 220.57 862.237C220.89 862.02 221.131 861.711 221.295 861.31C221.461 860.905 221.545 860.42 221.545 859.856C221.545 859.305 221.463 858.821 221.3 858.402C221.137 857.983 220.897 857.656 220.581 857.422C220.265 857.184 219.874 857.065 219.409 857.065C218.93 857.065 218.53 857.189 218.21 857.438C217.891 857.683 217.649 858.016 217.486 858.439C217.326 858.862 217.246 859.334 217.246 859.856C217.246 860.392 217.328 860.863 217.491 861.267C217.655 861.672 217.896 861.988 218.216 862.216C218.539 862.443 218.937 862.556 219.409 862.556ZM232.668 864.165C231.901 864.165 231.232 863.989 230.66 863.638C230.089 863.286 229.645 862.794 229.329 862.162C229.013 861.53 228.854 860.792 228.854 859.946C228.854 859.098 229.013 858.355 229.329 857.72C229.645 857.084 230.089 856.591 230.66 856.239C231.232 855.887 231.901 855.712 232.668 855.712C233.435 855.712 234.105 855.887 234.677 856.239C235.248 856.591 235.692 857.084 236.008 857.72C236.324 858.355 236.482 859.098 236.482 859.946C236.482 860.792 236.324 861.53 236.008 862.162C235.692 862.794 235.248 863.286 234.677 863.638C234.105 863.989 233.435 864.165 232.668 864.165ZM232.674 862.828C233.171 862.828 233.583 862.697 233.91 862.434C234.236 862.171 234.478 861.821 234.634 861.385C234.794 860.948 234.874 860.467 234.874 859.941C234.874 859.419 234.794 858.94 234.634 858.503C234.478 858.062 234.236 857.709 233.91 857.443C233.583 857.176 233.171 857.043 232.674 857.043C232.173 857.043 231.758 857.176 231.427 857.443C231.101 857.709 230.857 858.062 230.698 858.503C230.541 858.94 230.463 859.419 230.463 859.941C230.463 860.467 230.541 860.948 230.698 861.385C230.857 861.821 231.101 862.171 231.427 862.434C231.758 862.697 232.173 862.828 232.674 862.828ZM242.154 855.818V857.097H237.53V855.818H242.154ZM238.798 864V854.87C238.798 854.359 238.91 853.934 239.134 853.597C239.357 853.256 239.654 853.002 240.023 852.835C240.393 852.665 240.794 852.58 241.227 852.58C241.547 852.58 241.82 852.606 242.047 852.659C242.275 852.709 242.443 852.755 242.553 852.798L242.181 854.087C242.106 854.066 242.01 854.041 241.893 854.012C241.776 853.98 241.634 853.964 241.467 853.964C241.08 853.964 240.803 854.06 240.636 854.252C240.472 854.444 240.391 854.721 240.391 855.083V864H238.798ZM247.691 855.818V857.097H243.067V855.818H247.691ZM244.335 864V854.87C244.335 854.359 244.447 853.934 244.671 853.597C244.895 853.256 245.191 853.002 245.56 852.835C245.93 852.665 246.331 852.58 246.764 852.58C247.084 852.58 247.357 852.606 247.585 852.659C247.812 852.709 247.98 852.755 248.091 852.798L247.718 854.087C247.643 854.066 247.547 854.041 247.43 854.012C247.313 853.98 247.171 853.964 247.004 853.964C246.617 853.964 246.34 854.06 246.173 854.252C246.01 854.444 245.928 854.721 245.928 855.083V864H244.335ZM249.534 864.101C249.243 864.101 248.993 863.998 248.783 863.792C248.574 863.583 248.469 863.331 248.469 863.036C248.469 862.745 248.574 862.496 248.783 862.29C248.993 862.081 249.243 861.976 249.534 861.976C249.825 861.976 250.076 862.081 250.285 862.29C250.495 862.496 250.599 862.745 250.599 863.036C250.599 863.231 250.55 863.411 250.45 863.574C250.354 863.734 250.227 863.862 250.067 863.957C249.907 864.053 249.729 864.101 249.534 864.101Z" fill="black" fill-opacity="0.64"/>
<rect x="141" y="1019" width="391" height="94" rx="28" fill="#7D7D7D"/>
<rect x="207" y="1075" width="85" height="7" rx="3.5" fill="#8D8D8D"/>
<rect x="298" y="1075" width="100" height="7" rx="3.5" fill="#8D8D8D"/>
<rect x="404" y="1075" width="100" height="7" rx="3.5" fill="#8D8D8D"/>
<rect x="207" y="1085" width="61" height="7" rx="3.5" fill="#8D8D8D"/>
<rect x="273" y="1085" width="61" height="7" rx="3.5" fill="#8D8D8D"/>
<circle cx="179" cy="1082" r="15" fill="#A2A2A2" fill-opacity="0.46"/>
<rect x="126" y="977" width="421" height="100" rx="28" fill="#A5A5A5"/>
<circle cx="169" cy="1027" r="24" fill="#D9D9D9" fill-opacity="0.46"/>
<rect x="197" y="1027" width="63" height="9" rx="4.5" fill="#B3B3B3"/>
<rect x="265" y="1027" width="85" height="9" rx="4.5" fill="#B3B3B3"/>
<rect x="355" y="1027" width="42" height="9" rx="4.5" fill="#B3B3B3"/>
<rect x="402" y="1027" width="42" height="9" rx="4.5" fill="#B3B3B3"/>
<rect x="289" y="1039" width="42" height="9" rx="4.5" fill="#B3B3B3"/>
<rect x="337" y="1039" width="82" height="9" rx="4.5" fill="#B3B3B3"/>
<rect x="197" y="1039" width="85" height="9" rx="4.5" fill="#B3B3B3"/>
<rect x="94" y="908" width="485" height="116" rx="30" fill="#C4C4C4"/>
<circle cx="152.5" cy="965.5" r="32.5" fill="#D9D9D9"/>
<rect x="485" y="929" width="72" height="18" rx="9" fill="#D9D9D9"/>
<rect x="485" y="929" width="72" height="18" rx="9" fill="#D9D9D9"/>
<rect x="195" y="929" width="252" height="18" rx="9" fill="#A6A6A6"/>
<rect x="195" y="957" width="124" height="9" rx="4.5" fill="#D9D9D9"/>
<rect x="325" y="957" width="52" height="9" rx="4.5" fill="#D9D9D9"/>
<rect x="390" y="957" width="76" height="9" rx="4.5" fill="#D9D9D9"/>
<rect x="195" y="972" width="51" height="9" rx="4.5" fill="#D9D9D9"/>
<rect x="253" y="972" width="86" height="9" rx="4.5" fill="#D9D9D9"/>
<rect x="346" y="972" width="76" height="9" rx="4.5" fill="#D9D9D9"/>
<rect x="195" y="987" width="124" height="9" rx="4.5" fill="#D9D9D9"/>
<rect x="328" y="987" width="124" height="9" rx="4.5" fill="#D9D9D9"/>
<path d="M210.203 303.909V397H184.93V327.182H184.385L164.021 339.364V317.909L186.93 303.909H210.203ZM234.437 397V378.818L269.164 350.091C271.467 348.182 273.437 346.394 275.073 344.727C276.74 343.03 278.013 341.288 278.891 339.5C279.8 337.712 280.255 335.727 280.255 333.545C280.255 331.152 279.74 329.106 278.71 327.409C277.71 325.712 276.316 324.409 274.528 323.5C272.74 322.561 270.679 322.091 268.346 322.091C266.013 322.091 263.952 322.561 262.164 323.5C260.407 324.439 259.043 325.818 258.073 327.636C257.103 329.455 256.619 331.667 256.619 334.273H232.619C232.619 327.727 234.088 322.091 237.028 317.364C239.967 312.636 244.119 309 249.482 306.455C254.846 303.909 261.134 302.636 268.346 302.636C275.8 302.636 282.255 303.833 287.71 306.227C293.194 308.591 297.422 311.924 300.391 316.227C303.391 320.53 304.891 325.576 304.891 331.364C304.891 334.939 304.149 338.5 302.664 342.045C301.179 345.561 298.513 349.455 294.664 353.727C290.816 358 285.346 363.091 278.255 369L269.528 376.273V376.818H305.891V397H234.437ZM336.125 386.909C332.61 386.909 329.595 385.682 327.08 383.227C324.595 380.742 323.367 377.727 323.398 374.182C323.367 370.727 324.595 367.773 327.08 365.318C329.595 362.864 332.61 361.636 336.125 361.636C339.458 361.636 342.398 362.864 344.943 365.318C347.519 367.773 348.822 370.727 348.852 374.182C348.822 376.545 348.201 378.697 346.989 380.636C345.807 382.545 344.261 384.076 342.352 385.227C340.443 386.348 338.367 386.909 336.125 386.909ZM336.125 342.182C332.61 342.182 329.595 340.955 327.08 338.5C324.595 336.015 323.367 333 323.398 329.455C323.367 326 324.595 323.045 327.08 320.591C329.595 318.136 332.61 316.909 336.125 316.909C339.458 316.909 342.398 318.136 344.943 320.591C347.519 323.045 348.822 326 348.852 329.455C348.822 331.818 348.201 333.97 346.989 335.909C345.807 337.818 344.261 339.348 342.352 340.5C340.443 341.621 338.367 342.182 336.125 342.182ZM403.79 398.273C396.457 398.273 389.942 397.015 384.245 394.5C378.578 391.955 374.124 388.455 370.881 384C367.639 379.545 366.003 374.424 365.972 368.636H391.427C391.457 370.424 392.003 372.03 393.063 373.455C394.154 374.848 395.639 375.939 397.518 376.727C399.397 377.515 401.548 377.909 403.972 377.909C406.306 377.909 408.366 377.5 410.154 376.682C411.942 375.833 413.336 374.667 414.336 373.182C415.336 371.697 415.821 370 415.79 368.091C415.821 366.212 415.245 364.545 414.063 363.091C412.912 361.636 411.29 360.5 409.2 359.682C407.109 358.864 404.7 358.455 401.972 358.455H392.518V341H401.972C404.487 341 406.7 340.591 408.609 339.773C410.548 338.955 412.048 337.818 413.109 336.364C414.2 334.909 414.73 333.242 414.7 331.364C414.73 329.545 414.29 327.939 413.381 326.545C412.472 325.152 411.2 324.061 409.563 323.273C407.957 322.485 406.093 322.091 403.972 322.091C401.669 322.091 399.609 322.5 397.79 323.318C396.003 324.136 394.593 325.273 393.563 326.727C392.533 328.182 392.003 329.848 391.972 331.727H367.79C367.821 326.03 369.381 321 372.472 316.636C375.593 312.273 379.866 308.848 385.29 306.364C390.715 303.879 396.942 302.636 403.972 302.636C410.851 302.636 416.927 303.803 422.2 306.136C427.503 308.47 431.639 311.682 434.609 315.773C437.609 319.833 439.093 324.485 439.063 329.727C439.124 334.939 437.336 339.212 433.7 342.545C430.093 345.879 425.518 347.848 419.972 348.455V349.182C427.487 350 433.139 352.303 436.927 356.091C440.715 359.848 442.578 364.576 442.518 370.273C442.548 375.727 440.912 380.561 437.609 384.773C434.336 388.985 429.775 392.288 423.927 394.682C418.109 397.076 411.397 398.273 403.79 398.273ZM458.013 382.455V362.818L495.467 303.909H513.285V330.091H503.104L482.922 362.091V362.818H538.195V382.455H458.013ZM503.285 397V376.455L503.831 367.909V303.909H527.467V397H503.285Z" fill="white"/>
<circle cx="122" cy="832" r="37" fill="white"/>
</svg>
